<?xml version="1.0" encoding="utf-8"?>
<!-- Generator: Adobe Illustrator 26.2.1, SVG Export Plug-In . SVG Version: 6.00 Build 0)  -->
<svg version="1.1" id="Layer_1" xmlns="http://www.w3.org/2000/svg" xmlns:xlink="http://www.w3.org/1999/xlink" x="0px" y="0px"
	 viewBox="0 0 500 455.46" style="enable-background:new 0 0 500 455.46;" xml:space="preserve">
<style type="text/css">
	.st0{fill:#AAA;}
	.st1{opacity:0.38;fill:#AAA;}
	.st2{opacity:0.38;}
</style>
<g>
	<g>
		<g>
			<path class="st0" d="M376.62,252.74l-78.96,53.24c-0.69-0.81-1.71-1.33-2.85-1.33c-2.08,0-3.76,1.69-3.76,3.76
				c0,2.08,1.69,3.76,3.76,3.76c2.08,0,3.76-1.69,3.76-3.76c0-0.48-0.1-0.94-0.27-1.37l78.47-52.91l14.01,5.42l102.24-76.91
				l-0.75-0.99l-101.69,76.49L376.62,252.74z M294.81,310.7c-1.27,0-2.3-1.03-2.3-2.3c0-1.27,1.03-2.3,2.3-2.3
				c1.27,0,2.3,1.03,2.3,2.3C297.11,309.67,296.08,310.7,294.81,310.7z"/>
			<path class="st0" d="M377.16,335.4c-2.02,0-3.67,1.65-3.67,3.67c0,2.02,1.65,3.67,3.67,3.67s3.67-1.65,3.67-3.67
				C380.83,337.05,379.18,335.4,377.16,335.4z M377.16,341.95c-1.58,0-2.87-1.29-2.87-2.87c0-1.59,1.29-2.87,2.87-2.87
				c1.58,0,2.87,1.29,2.87,2.87C380.03,340.66,378.74,341.95,377.16,341.95z"/>
			<polygon class="st0" points="380.23,336.94 433.26,296.15 433.26,259.62 481.72,225.97 481.02,224.95 432.02,258.97 
				432.02,295.54 379.48,335.96 			"/>
			<path class="st0" d="M413.15,275.4c2.08,0,3.76-1.69,3.76-3.76c0-2.08-1.69-3.76-3.76-3.76c-2.08,0-3.76,1.69-3.76,3.76
				c0,0.74,0.22,1.43,0.59,2.01c-5,4.18-48.75,38.02-72.35,56.23l-22.06-4.5l-33.54,19.86c-0.69-0.85-1.73-1.41-2.91-1.41
				c-2.08,0-3.76,1.69-3.76,3.76c0,2.08,1.69,3.76,3.76,3.76c2.08,0,3.76-1.69,3.76-3.76c0-0.45-0.09-0.88-0.24-1.28l33.15-19.63
				l22.15,4.52l0.22-0.17c2.8-2.16,66.17-51.05,72.65-56.47C411.45,275.08,412.26,275.4,413.15,275.4z M279.11,349.89
				c-1.27,0-2.3-1.03-2.3-2.3c0-1.27,1.03-2.3,2.3-2.3c1.27,0,2.3,1.03,2.3,2.3C281.41,348.86,280.38,349.89,279.11,349.89z
				 M413.15,269.34c1.27,0,2.3,1.03,2.3,2.3c0,1.27-1.03,2.3-2.3,2.3c-1.27,0-2.3-1.03-2.3-2.3
				C410.85,270.37,411.88,269.34,413.15,269.34z"/>
			<path class="st0" d="M377.5,218.76c0.03-0.19,0.06-0.38,0.06-0.58c0-2.08-1.69-3.76-3.76-3.76c-2.08,0-3.76,1.69-3.76,3.76
				c0,2.08,1.69,3.76,3.76,3.76c1.43,0,2.67-0.81,3.3-2l15.66,3.48l54.37-40.78l-0.16-0.22c0.76,0.62,1.72,1,2.77,1
				c2.45,0,4.44-1.99,4.44-4.44s-1.99-4.44-4.44-4.44s-4.44,1.99-4.44,4.44c0,1.04,0.37,1.98,0.98,2.74l-53.81,40.35L377.5,218.76z
				 M373.79,220.47c-1.27,0-2.3-1.03-2.3-2.3c0-1.27,1.03-2.3,2.3-2.3c1.27,0,2.3,1.03,2.3,2.3
				C376.09,219.44,375.06,220.47,373.79,220.47z M449.74,175.67c1.83,0,3.31,1.49,3.31,3.31c0,1.83-1.49,3.31-3.31,3.31
				s-3.31-1.49-3.31-3.31C446.43,177.16,447.91,175.67,449.74,175.67z"/>
			<path class="st0" d="M270.67,268.22c-0.94,0-1.83,0.37-2.49,1.03c-0.67,0.67-1.03,1.55-1.03,2.49s0.37,1.83,1.03,2.49
				c1.33,1.33,3.65,1.33,4.98,0c0.67-0.67,1.03-1.55,1.03-2.49s-0.37-1.83-1.03-2.49C272.5,268.59,271.61,268.22,270.67,268.22z
				 M272.53,273.6c-0.51,0.51-1.19,0.77-1.86,0.77c-0.67,0-1.35-0.26-1.86-0.77c-1.03-1.03-1.03-2.69,0-3.72
				c1.03-1.03,2.69-1.03,3.72,0C273.56,270.91,273.56,272.58,272.53,273.6z"/>
			<path class="st0" d="M308.1,139.87c2.01,0,3.65-1.64,3.65-3.65c0-0.45-0.09-0.88-0.24-1.28l29.25-19.63l26.16,4.51l0.21-0.15
				c1.1-0.79,27.03-19.29,29.07-21.33l0.17-0.17l0.87-24.49l41.08-29.07c1.06,1.18,2.58,1.95,4.29,1.95c3.19,0,5.79-2.6,5.79-5.79
				c0-3.19-2.6-5.79-5.79-5.79c-3.19,0-5.79,2.6-5.79,5.79c0,1.03,0.29,1.99,0.77,2.83l-41.58,29.42l-0.88,24.6
				c-2.4,2.13-19.43,14.39-28.53,20.89L340.48,114l-29.61,19.87c-0.67-0.79-1.66-1.31-2.78-1.31c-2.01,0-3.65,1.64-3.65,3.65
				C304.45,138.23,306.09,139.87,308.1,139.87z M442.62,36.45c2.38,0,4.32,1.94,4.32,4.32c0,2.38-1.94,4.32-4.32,4.32
				c-2.38,0-4.32-1.94-4.32-4.32C438.31,38.39,440.24,36.45,442.62,36.45z M308.1,133.81c1.33,0,2.41,1.08,2.41,2.41
				c0,1.33-1.08,2.41-2.41,2.41s-2.41-1.08-2.41-2.41C305.69,134.89,306.77,133.81,308.1,133.81z"/>
			<path class="st0" d="M437.89,340.58c-2.33,0-4.22,1.89-4.22,4.22s1.89,4.22,4.22,4.22c2.33,0,4.22-1.89,4.22-4.22
				S440.22,340.58,437.89,340.58z"/>
			<path class="st0" d="M225.27,259.08v-18.85l103.24-68.41l16.26,3.61l54.04-40.53c0.92,0.62,2.02,0.98,3.21,0.98
				c3.19,0,5.79-2.6,5.79-5.79c0-3.19-2.6-5.79-5.79-5.79c-3.19,0-5.79,2.6-5.79,5.79c0,1.55,0.62,2.94,1.61,3.98l-53.36,40.02
				l-16.22-3.6l-103.96,68.89l-0.28,0.18v19.52c-2.55,0.31-4.54,2.47-4.54,5.1c0,2.85,2.32,5.16,5.16,5.16s5.16-2.32,5.16-5.16
				C229.81,261.54,227.82,259.39,225.27,259.08z M402.03,125.77c2.38,0,4.32,1.94,4.32,4.32s-1.94,4.32-4.32,4.32
				c-2.38,0-4.32-1.94-4.32-4.32S399.65,125.77,402.03,125.77z M224.65,267.87c-2.04,0-3.7-1.66-3.7-3.7c0-2.04,1.66-3.7,3.7-3.7
				c2.04,0,3.7,1.66,3.7,3.7C228.35,266.22,226.69,267.87,224.65,267.87z"/>
			<path class="st0" d="M377.26,195.3c0,0.01,0,0.01,0,0.02c0,2.08,1.69,3.76,3.76,3.76c2.08,0,3.76-1.69,3.76-3.76
				s-1.69-3.76-3.76-3.76c-1.64,0-3.02,1.06-3.54,2.52l-18.2-2.43l-87.64,60.28l-1.59,16.23l1.24,0.12l1.54-15.65l86.77-59.69
				L377.26,195.3z M381.02,193.02c1.27,0,2.3,1.03,2.3,2.3c0,1.27-1.03,2.3-2.3,2.3c-1.27,0-2.3-1.03-2.3-2.3
				C378.72,194.05,379.75,193.02,381.02,193.02z"/>
			<path class="st0" d="M351.57,241.12c2.33,0,4.22-1.89,4.22-4.22c0-2.33-1.89-4.22-4.22-4.22s-4.22,1.89-4.22,4.22
				c0,0.53,0.11,1.02,0.28,1.49L310.02,265c-0.55-0.45-1.24-0.73-2-0.73c-1.76,0-3.19,1.43-3.19,3.19s1.43,3.19,3.19,3.19
				s3.19-1.43,3.19-3.19c0-0.55-0.15-1.05-0.39-1.5l37.43-26.48C349.01,240.47,350.21,241.12,351.57,241.12z M308.01,269.18
				c-0.95,0-1.72-0.77-1.72-1.72c0-0.95,0.77-1.72,1.72-1.72c0.95,0,1.72,0.77,1.72,1.72C309.74,268.41,308.96,269.18,308.01,269.18
				z"/>
			<path class="st0" d="M431.45,105.39c-0.32-0.23-0.71-0.37-1.13-0.37c-1.08,0-1.95,0.87-1.95,1.95c0,1.08,0.87,1.95,1.95,1.95
				s1.95-0.87,1.95-1.95c0-0.2-0.04-0.39-0.09-0.57l24.39-17.51c0.22,0.09,0.45,0.14,0.7,0.14c1.01,0,1.83-0.82,1.83-1.83
				c0-1.01-0.82-1.83-1.83-1.83s-1.83,0.82-1.83,1.83c0,0.3,0.08,0.58,0.21,0.83L431.45,105.39z"/>
			<path class="st0" d="M114.97,320.32c2.33,0,4.22-1.89,4.22-4.22c0-0.61-0.13-1.18-0.36-1.7l21.52-14.84l-1.01-13.29l22.84-16.16
				c0.77,1,1.97,1.65,3.32,1.65c2.33,0,4.22-1.89,4.22-4.22c0-2.33-1.89-4.22-4.22-4.22s-4.22,1.89-4.22,4.22
				c0,0.53,0.11,1.02,0.28,1.49l-23.52,16.63l1.01,13.29l-20.9,14.42c-0.77-0.9-1.91-1.48-3.18-1.48c-2.33,0-4.22,1.89-4.22,4.22
				C110.74,318.43,112.64,320.32,114.97,320.32z"/>
			
				<rect x="441.4" y="132.42" transform="matrix(0.7908 -0.612 0.612 0.7908 10.5228 299.5449)" class="st0" width="4.16" height="3.92"/>
			
				<rect x="431.52" y="140.07" transform="matrix(0.7908 -0.612 0.612 0.7908 3.7753 295.0971)" class="st0" width="4.16" height="3.92"/>
			
				<rect x="421.64" y="147.71" transform="matrix(0.7908 -0.6121 0.6121 0.7908 -2.9689 290.6593)" class="st0" width="4.16" height="3.92"/>
			
				<rect x="411.76" y="155.36" transform="matrix(0.7908 -0.6121 0.6121 0.7908 -9.7189 286.204)" class="st0" width="4.16" height="3.92"/>
			
				<rect x="401.88" y="163.01" transform="matrix(0.7908 -0.6121 0.6121 0.7908 -16.4644 281.7635)" class="st0" width="4.16" height="3.92"/>
			
				<rect x="392" y="170.66" transform="matrix(0.7908 -0.6121 0.6121 0.7908 -23.2142 277.3074)" class="st0" width="4.16" height="3.92"/>
			
				<rect x="261.68" y="307.02" transform="matrix(0.7908 -0.612 0.612 0.7908 -133.9387 226.0688)" class="st0" width="4.16" height="3.92"/>
			
				<rect x="251.8" y="314.67" transform="matrix(0.7908 -0.6121 0.6121 0.7908 -140.6909 221.6407)" class="st0" width="4.16" height="3.92"/>
			
				<rect x="241.92" y="322.32" transform="matrix(0.7908 -0.6121 0.6121 0.7908 -147.4359 217.1813)" class="st0" width="4.16" height="3.92"/>
			
				<rect x="232.04" y="329.97" transform="matrix(0.7908 -0.612 0.612 0.7908 -154.1798 212.7211)" class="st0" width="4.16" height="3.92"/>
			
				<rect x="222.16" y="337.61" transform="matrix(0.7908 -0.6121 0.6121 0.7908 -160.9309 208.2845)" class="st0" width="4.16" height="3.92"/>
			
				<rect x="212.28" y="345.26" transform="matrix(0.7908 -0.6121 0.6121 0.7908 -167.6832 203.8489)" class="st0" width="4.16" height="3.92"/>
			
				<rect x="448.31" y="307.02" transform="matrix(0.7908 -0.6121 0.6121 0.7908 -94.8993 340.3073)" class="st0" width="4.16" height="3.92"/>
			
				<rect x="438.43" y="314.67" transform="matrix(0.7908 -0.6121 0.6121 0.7908 -101.6471 335.8594)" class="st0" width="4.16" height="3.92"/>
			
				<rect x="428.55" y="322.32" transform="matrix(0.7908 -0.6121 0.6121 0.7908 -108.3948 331.4146)" class="st0" width="4.16" height="3.92"/>
			
				<rect x="418.67" y="329.97" transform="matrix(0.7908 -0.6121 0.6121 0.7908 -115.1426 326.9666)" class="st0" width="4.16" height="3.92"/>
			
				<rect x="408.78" y="337.61" transform="matrix(0.7908 -0.6121 0.6121 0.7908 -121.89 322.5054)" class="st0" width="4.16" height="3.92"/>
			
				<rect x="398.9" y="345.26" transform="matrix(0.7908 -0.6121 0.6121 0.7908 -128.6388 318.0811)" class="st0" width="4.16" height="3.92"/>
			<path class="st0" d="M203.45,276.47l-28.67,22.71l22.71,28.67l28.67-22.71L203.45,276.47z M177.12,299.44l26.06-20.65
				l20.65,26.06l-26.06,20.65L177.12,299.44z"/>
			<path class="st0" d="M202.33,286.15l-17.86,14.15l14.15,17.86l17.86-14.15L202.33,286.15z M186.57,300.54l15.51-12.29
				l12.29,15.51l-15.51,12.29L186.57,300.54z"/>
			
				<rect x="196.19" y="297.87" transform="matrix(0.7838 -0.621 0.621 0.7838 -144.29 189.7964)" class="st0" width="8.56" height="8.56"/>
			<path class="st0" d="M447.03,268.4l18.66,23.56l23.56-18.66l-18.66-23.56L447.03,268.4z M465.91,290.04l-16.97-21.42l21.42-16.97
				l16.97,21.42L465.91,290.04z"/>
			<path class="st0" d="M454.99,269.32L466.61,284l14.68-11.63l-11.63-14.68L454.99,269.32z M466.81,282.27l-10.1-12.75l12.75-10.1
				l10.1,12.75L466.81,282.27z"/>
			
				<rect x="464.62" y="267.33" transform="matrix(0.7839 -0.6209 0.6209 0.7839 -66.9964 349.2281)" class="st0" width="7.04" height="7.04"/>
			
				<rect x="287.47" y="149.13" transform="matrix(0.811 -0.585 0.585 0.811 -33.6807 197.9152)" class="st0" width="4.06" height="3.92"/>
			
				<rect x="277.59" y="156.26" transform="matrix(0.811 -0.585 0.585 0.811 -39.7191 193.4804)" class="st0" width="4.06" height="3.92"/>
			
				<rect x="267.71" y="163.39" transform="matrix(0.811 -0.585 0.585 0.811 -45.7569 189.0538)" class="st0" width="4.06" height="3.92"/>
			<path class="st0" d="M138.53,251.5c2.08,0,3.76-1.69,3.76-3.76c0-0.78-0.24-1.51-0.65-2.11l31.7-21.27l18.06,1.35l54.49-40.53
				c0.62,0.46,1.39,0.74,2.22,0.74c2.08,0,3.76-1.69,3.76-3.76s-1.69-3.76-3.76-3.76c-2.08,0-3.76,1.69-3.76,3.76
				c0,0.79,0.25,1.52,0.67,2.13l-53.99,40.15L173,223.08l-32.24,21.64c-0.63-0.46-1.39-0.75-2.23-0.75c-2.08,0-3.76,1.69-3.76,3.76
				S136.45,251.5,138.53,251.5z M248.11,179.85c1.27,0,2.3,1.03,2.3,2.3s-1.03,2.3-2.3,2.3c-1.27,0-2.3-1.03-2.3-2.3
				S246.85,179.85,248.11,179.85z M138.53,245.44c1.27,0,2.3,1.03,2.3,2.3s-1.03,2.3-2.3,2.3c-1.27,0-2.3-1.03-2.3-2.3
				S137.26,245.44,138.53,245.44z"/>
		</g>
	</g>
	<path class="st1" d="M412.24,286.79c-4.13,0-7.48,3.36-7.48,7.48c0,1.1,0.25,2.15,0.68,3.09l-52.17,40.13V374L306,406.83
		c-1.23-0.88-2.72-1.4-4.34-1.4c-4.13,0-7.48,3.36-7.48,7.48c0,4.13,3.36,7.48,7.48,7.48c4.13,0,7.48-3.36,7.48-7.48
		c0-1.44-0.41-2.78-1.12-3.92l48.18-33.46v-36.59l50.96-39.2c1.34,1.24,3.12,2.01,5.09,2.01c4.13,0,7.48-3.36,7.48-7.48
		C419.73,290.15,416.37,286.79,412.24,286.79z M301.66,417.46c-2.51,0-4.55-2.04-4.55-4.55s2.04-4.55,4.55-4.55
		c2.51,0,4.55,2.04,4.55,4.55S304.17,417.46,301.66,417.46z M412.24,298.83c-2.51,0-4.55-2.04-4.55-4.55s2.04-4.55,4.55-4.55
		s4.55,2.04,4.55,4.55S414.75,298.83,412.24,298.83z"/>
	<path class="st1" d="M166.34,320.32c-4.13,0-7.48,3.36-7.48,7.48c0,1.1,0.25,2.15,0.68,3.09l-52.17,40.13v36.5L60.1,440.35
		c-1.23-0.88-2.72-1.4-4.34-1.4c-4.13,0-7.48,3.36-7.48,7.48c0,4.13,3.36,7.48,7.48,7.48c4.13,0,7.48-3.36,7.48-7.48
		c0-1.44-0.41-2.78-1.12-3.92l48.18-33.46v-36.59l50.96-39.2c1.34,1.24,3.12,2.01,5.09,2.01c4.13,0,7.48-3.36,7.48-7.48
		S170.47,320.32,166.34,320.32z M55.76,450.98c-2.51,0-4.55-2.04-4.55-4.55s2.04-4.55,4.55-4.55s4.55,2.04,4.55,4.55
		S58.27,450.98,55.76,450.98z M166.34,332.35c-2.51,0-4.55-2.04-4.55-4.55s2.04-4.55,4.55-4.55s4.55,2.04,4.55,4.55
		S168.85,332.35,166.34,332.35z"/>
	<path class="st1" d="M2.66,339.1c0.63,0.78,1.54,1.26,2.53,1.37c1.1,0.11,2.13-0.27,2.89-0.96l15.93,5.29l58.57-35.24l-0.57-0.95
		c0.72,0.71,1.64,1.17,2.65,1.27c1.18,0.12,2.33-0.23,3.26-0.97c0.92-0.75,1.49-1.81,1.61-2.99c0.12-1.18-0.22-2.34-0.97-3.26
		c-0.75-0.92-1.81-1.49-2.99-1.61c-0.15-0.02-0.31-0.02-0.46-0.02c-1.02,0-2,0.35-2.8,1c-0.92,0.75-1.49,1.81-1.61,2.99
		c-0.07,0.72,0.05,1.42,0.3,2.07l-57.34,34.5l-14.34-4.76c0.05-1.95-1.39-3.65-3.36-3.85c-0.13-0.01-0.26-0.02-0.39-0.02
		c-0.86,0-1.69,0.29-2.37,0.85c-0.78,0.63-1.27,1.53-1.37,2.53C1.73,337.35,2.02,338.33,2.66,339.1z M81.81,305.13L81.81,305.13
		c0.09-0.88,0.52-1.67,1.2-2.23c0.69-0.56,1.55-0.82,2.43-0.73c0.88,0.09,1.67,0.52,2.23,1.2c0.56,0.69,0.82,1.55,0.73,2.43
		c-0.09,0.88-0.52,1.67-1.2,2.23c-0.6,0.49-1.33,0.75-2.09,0.75c-0.11,0-0.23-0.01-0.34-0.02c-0.88-0.09-1.67-0.52-2.23-1.2
		C81.98,306.87,81.72,306.01,81.81,305.13z M3.29,336.49L3.29,336.49c0.06-0.61,0.36-1.16,0.83-1.55c0.48-0.39,1.08-0.57,1.68-0.5
		c1.26,0.13,2.18,1.26,2.05,2.52c-0.12,1.18-1.12,2.06-2.28,2.06c-0.08,0-0.16,0-0.24-0.01c-0.61-0.06-1.16-0.36-1.55-0.83
		C3.41,337.7,3.23,337.1,3.29,336.49z"/>
	<path class="st1" d="M412.38,78.21c0.68,0.74,1.61,1.17,2.62,1.2c1.11,0.04,2.11-0.41,2.83-1.14l16.23,4.27l56.22-38.87l-0.63-0.91
		c0.76,0.66,1.71,1.06,2.73,1.1c1.18,0.05,2.32-0.37,3.19-1.18c0.87-0.81,1.37-1.9,1.42-3.09c0.05-1.19-0.37-2.32-1.18-3.19
		c-0.81-0.87-1.9-1.37-3.09-1.42c-0.15-0.01-0.31,0-0.46,0.01c-1.02,0.06-1.97,0.47-2.73,1.17c-0.87,0.81-1.37,1.9-1.42,3.09
		c-0.03,0.72,0.13,1.42,0.43,2.05L433.5,79.37l-14.61-3.84c-0.07-1.95-1.62-3.55-3.6-3.63c-0.13,0-0.26,0-0.39,0
		c-0.86,0.05-1.67,0.4-2.31,0.99c-0.74,0.68-1.17,1.61-1.2,2.62C411.34,76.52,411.7,77.48,412.38,78.21z M489.23,39.3L489.23,39.3
		c0.03-0.88,0.41-1.7,1.06-2.31c0.65-0.6,1.49-0.91,2.38-0.88c0.88,0.03,1.7,0.41,2.3,1.06c0.6,0.65,0.91,1.49,0.88,2.38
		c-0.03,0.88-0.41,1.7-1.06,2.3c-0.56,0.52-1.28,0.83-2.04,0.88c-0.11,0.01-0.23,0.01-0.34,0c-0.88-0.03-1.7-0.41-2.3-1.06
		C489.51,41.03,489.2,40.18,489.23,39.3z M412.85,75.57L412.85,75.57c0.02-0.61,0.28-1.18,0.73-1.6c0.45-0.42,1.04-0.64,1.65-0.61
		c1.27,0.05,2.26,1.12,2.21,2.38c-0.05,1.19-0.99,2.13-2.15,2.21c-0.08,0-0.16,0.01-0.24,0c-0.61-0.02-1.18-0.28-1.6-0.73
		C413.04,76.77,412.82,76.18,412.85,75.57z"/>
	<path class="st1" d="M13.75,320.32c3.68,0,6.67-2.99,6.67-6.67c0-0.28-0.05-0.55-0.08-0.82l51.64-34.66l46.39,8l0.88-0.63
		c4.91-3.5,48.07-34.32,51.72-37.97l0.72-0.72l1.54-43.25l72.46-51.27c1.78,1.47,4.02,2.4,6.51,2.4c5.65,0,10.26-4.6,10.26-10.26
		c0-5.65-4.6-10.26-10.26-10.26c-5.65,0-10.26,4.6-10.26,10.26c0,1.29,0.27,2.51,0.7,3.65l-74.52,52.73l-1.56,43.69
		c-5.15,4.3-31.46,23.3-49.46,36.15l-46.3-7.99l-53.09,35.63c-1.11-0.83-2.48-1.34-3.97-1.34c-3.68,0-6.67,2.99-6.67,6.67
		C7.07,317.32,10.07,320.32,13.75,320.32z M252.2,136.8c4.22,0,7.66,3.44,7.66,7.66c0,4.22-3.43,7.66-7.66,7.66
		c-4.22,0-7.66-3.43-7.66-7.66C244.55,140.24,247.98,136.8,252.2,136.8z M13.75,309.57c2.25,0,4.07,1.83,4.07,4.07
		c0,2.25-1.83,4.07-4.07,4.07s-4.07-1.83-4.07-4.07C9.68,311.4,11.5,309.57,13.75,309.57z"/>
	<g class="st2">
		<g>
			
				<rect x="380.71" y="274.84" transform="matrix(0.8195 -0.573 0.573 0.8195 -89.4749 269.1761)" class="st0" width="3.83" height="3.61"/>
		</g>
		<g>
			
				<rect x="371.28" y="281.43" transform="matrix(0.8195 -0.573 0.573 0.8195 -94.9528 264.9639)" class="st0" width="3.83" height="3.61"/>
		</g>
		<g>
			
				<rect x="361.86" y="288.03" transform="matrix(0.8195 -0.573 0.573 0.8195 -100.4305 260.7482)" class="st0" width="3.83" height="3.61"/>
		</g>
		<g>
			
				<rect x="352.43" y="294.62" transform="matrix(0.8195 -0.573 0.573 0.8195 -105.9087 256.5394)" class="st0" width="3.83" height="3.61"/>
		</g>
		<g>
			
				<rect x="343" y="301.21" transform="matrix(0.8195 -0.573 0.573 0.8195 -111.3875 252.3356)" class="st0" width="3.83" height="3.61"/>
		</g>
		<g>
			
				<rect x="333.58" y="307.8" transform="matrix(0.8195 -0.573 0.573 0.8195 -116.864 248.1113)" class="st0" width="3.83" height="3.61"/>
		</g>
	</g>
	<g class="st2">
		<g>
			
				<rect x="426.69" y="2.63" transform="matrix(0.8196 -0.573 0.573 0.8196 74.1371 247.7525)" class="st0" width="7.51" height="7.06"/>
		</g>
		<g>
			
				<rect x="408.23" y="15.54" transform="matrix(0.8195 -0.573 0.573 0.8195 63.4203 239.5215)" class="st0" width="7.51" height="7.06"/>
		</g>
		<g>
			
				<rect x="389.76" y="28.45" transform="matrix(0.8195 -0.573 0.573 0.8195 52.6882 231.2675)" class="st0" width="7.51" height="7.06"/>
		</g>
		<g>
			
				<rect x="371.3" y="41.36" transform="matrix(0.8196 -0.573 0.573 0.8196 41.9517 223.0045)" class="st0" width="7.51" height="7.06"/>
		</g>
		<g>
			
				<rect x="352.83" y="54.27" transform="matrix(0.8195 -0.573 0.573 0.8195 31.2297 214.769)" class="st0" width="7.51" height="7.06"/>
		</g>
		<g>
			
				<rect x="334.37" y="67.18" transform="matrix(0.8195 -0.573 0.573 0.8195 20.4976 206.5139)" class="st0" width="7.51" height="7.06"/>
		</g>
	</g>
</g>
</svg>
