<?xml version="1.0" encoding="utf-8"?>
<!-- Generator: Adobe Illustrator 25.2.1, SVG Export Plug-In . SVG Version: 6.00 Build 0)  -->
<svg version="1.1" id="Layer_1" xmlns="http://www.w3.org/2000/svg" xmlns:xlink="http://www.w3.org/1999/xlink" x="0px" y="0px"
	 viewBox="0 0 1080 270.6" style="enable-background:new 0 0 1080 270.6;" xml:space="preserve">
<style type="text/css">
	.st0{fill:#FFFFFF;}
	.st1{fill-rule:evenodd;clip-rule:evenodd;fill:#FFFFFF;}
</style>
<desc>Created with Sketch.</desc>
<g>
	<path class="st0" d="M294.5,97.6h11.6l32.5,75.5h-15.4l-7-17.3h-32.8l-6.8,17.3h-15L294.5,97.6z M311.5,144.3l-11.6-30.7
		l-11.8,30.7H311.5z"/>
	<path class="st0" d="M353.1,97.6h15.5l20.6,57.1l21.2-57.1h14.5l-30.5,75.5h-11.6L353.1,97.6z"/>
	<path class="st0" d="M472.9,97.6h11.6l32.5,75.5h-15.4l-7-17.3h-32.8l-6.8,17.3h-15L472.9,97.6z M490,144.3l-11.6-30.7l-11.8,30.7
		H490z"/>
	<path class="st0" d="M546.8,97.6h13.4V161h32.1v12.2h-45.6L546.8,97.6L546.8,97.6z"/>
	<path class="st0" d="M648,97.6h11.6l32.5,75.5h-15.4l-7-17.3H637l-6.8,17.3h-15L648,97.6z M665,144.3l-11.6-30.7l-11.8,30.7H665z"
		/>
	<path class="st0" d="M721.9,97.6h17.8l36.6,56.1h0.2V97.6h13.4v75.5h-17.1l-37.4-57.9h-0.2v57.9h-13.4V97.6H721.9z"/>
	<path class="st0" d="M880,115.3c-2.8-3-5.5-5-8.1-6s-5.2-1.5-7.8-1.5c-3.9,0-7.5,0.7-10.7,2.1c-3.1,1.4-5.8,3.3-8.1,5.8
		c-2.3,2.4-4.1,5.3-5.3,8.5c-1.2,3.3-1.8,6.8-1.8,10.6c0,4.1,0.6,7.8,1.8,11.2c1.3,3.4,3.1,6.4,5.3,8.9c2.3,2.5,5,4.4,8.1,5.9
		c3.2,1.4,6.8,2.1,10.7,2.1c3.1,0,6-0.7,8.9-2.1c2.9-1.5,5.6-3.8,8.1-7l11.1,7.9c-3.4,4.7-7.6,8.1-12.5,10.2
		c-4.9,2.1-10.1,3.2-15.7,3.2c-5.8,0-11.2-0.9-16.1-2.8c-4.8-1.9-9-4.6-12.6-8c-3.5-3.5-6.2-7.6-8.2-12.5c-2-4.8-3-10.2-3-16.1
		c0-6,1-11.5,3-16.4c2-5,4.7-9.2,8.2-12.7c3.6-3.5,7.8-6.2,12.6-8c4.9-1.9,10.3-2.9,16.1-2.9c5.1,0,9.9,0.9,14.2,2.8
		c4.4,1.8,8.5,4.8,12.3,9.2L880,115.3z"/>
	<path class="st0" d="M922.5,97.6H936v30.1h35.3V97.6h13.4v75.5h-13.4v-33.3H936v33.3h-13.4L922.5,97.6L922.5,97.6z"/>
	<path class="st0" d="M1023,97.6h50v12.2h-36.6v18.6h34.7v12.2h-34.7V161h38.5v12.2h-52L1023,97.6L1023,97.6z"/>
	<path class="st1" d="M113.4,243.7c59.8,0,108.4-48.5,108.4-108.4S173.3,26.9,113.4,26.9S5.1,75.5,5.1,135.3S53.6,243.7,113.4,243.7
		z M80.7,184.4H55.3c-6,0-9,0-10.8-1.2c-2-1.3-3.2-3.4-3.3-5.7c-0.1-2.1,1.4-4.8,4.4-10l0,0L101.1,70c3-5.3,4.5-8,6.5-8.9
		c2.1-1.1,4.6-1.1,6.6,0c1.9,1,3.4,3.6,6.5,8.9l12.8,22.4l0,0c2.2,3.9,3.3,5.8,3.8,7.8c0.5,2.2,0.5,4.5,0,6.7c-0.5,2-1.6,4-3.8,7.8
		L100.3,173c-2.2,3.9-3.4,5.9-4.9,7.3c-1.7,1.6-3.7,2.8-5.9,3.4C87.5,184.4,85.2,184.4,80.7,184.4z M171.4,184.4h-29.5
		c-6.1,0-9.1,0-10.9-1.2c-2-1.3-3.2-3.4-3.3-5.7c-0.1-2.2,1.4-4.8,4.5-10l14.7-25.2c3-5.2,4.5-7.8,6.4-8.7c2.1-1,4.5-1.1,6.6,0
		c1.9,1,3.4,3.6,6.5,8.7l0,0l14.8,25.2c3.1,5.3,4.6,7.9,4.5,10c-0.1,2.3-1.3,4.5-3.3,5.7C180.5,184.4,177.5,184.4,171.4,184.4z"/>
</g>
</svg>
