<?xml version="1.0" encoding="utf-8"?>
<!-- Generator: Adobe Illustrator 25.2.1, SVG Export Plug-In . SVG Version: 6.00 Build 0)  -->
<svg version="1.1" id="Layer_1" xmlns="http://www.w3.org/2000/svg" xmlns:xlink="http://www.w3.org/1999/xlink" x="0px" y="0px"
	 viewBox="0 0 500 500" style="enable-background:new 0 0 500 500;" xml:space="preserve">
<style type="text/css">
	.st0{fill-rule:evenodd;clip-rule:evenodd;fill:#FFFFFF;}
</style>
<path class="st0" d="M249.9,472.2c122.6,0,222.2-99.4,222.2-222.2S372.7,27.8,249.9,27.8s-222,99.6-222,222.2
	S127.3,472.2,249.9,472.2z M182.9,350.6h-52.1c-12.3,0-18.4,0-22.1-2.5c-4.1-2.7-6.6-7-6.8-11.7c-0.2-4.3,2.9-9.8,9-20.5l0,0
	l113.8-199.8c6.1-10.9,9.2-16.4,13.3-18.2c4.3-2.3,9.4-2.3,13.5,0c3.9,2,7,7.4,13.3,18.2l26.2,45.9l0,0c4.5,8,6.8,11.9,7.8,16
	c1,4.5,1,9.2,0,13.7c-1,4.1-3.3,8.2-7.8,16L223,327.3c-4.5,8-7,12.1-10,15c-3.5,3.3-7.6,5.7-12.1,7
	C196.8,350.6,192.1,350.6,182.9,350.6z M368.8,350.6h-60.5c-12.5,0-18.7,0-22.3-2.5c-4.1-2.7-6.6-7-6.8-11.7
	c-0.2-4.5,2.9-9.8,9.2-20.5l30.1-51.7c6.1-10.7,9.2-16,13.1-17.8c4.3-2,9.2-2.3,13.5,0c3.9,2,7,7.4,13.3,17.8l0,0l30.3,51.7
	c6.4,10.9,9.4,16.2,9.2,20.5c-0.2,4.7-2.7,9.2-6.8,11.7C387.4,350.6,381.3,350.6,368.8,350.6z"/>
</svg>
