<?xml version="1.0" encoding="utf-8"?>
<!-- Generator: Adobe Illustrator 25.2.1, SVG Export Plug-In . SVG Version: 6.00 Build 0)  -->
<svg version="1.1" id="Layer_1" xmlns="http://www.w3.org/2000/svg" xmlns:xlink="http://www.w3.org/1999/xlink" x="0px" y="0px"
	 viewBox="0 0 500 446" style="enable-background:new 0 0 500 446;" xml:space="preserve">
<style type="text/css">
	.st0{fill:#FFFFFF;}
	.st1{fill:#1B00FF;}
</style>
<g>
	<g>
		<path class="st0" d="M247.7,367.5c-3.8,48.8-41.7,70.7-71.2,71.2c-39.2,0.6-63.4-22.6-74.6-72c-21.9,0-44.1,0.1-66.3,0
			C10.2,366.4-3.6,345.8,8,323.3c17.6-34.1,21.9-70.6,23.1-108c0.6-18.5,0.2-37.6,4.2-55.5c15-66.6,76.2-112,145.5-109.7
			c73.3,2.4,133.5,62.4,137.5,135.8c1.8,32.3,4.4,64.7,8.8,96.7c1.9,13.7,8.7,27,14.6,39.8c10.8,23.5-1.6,44.1-27.4,44.2
			c-21.2,0.1-42.4,0.1-63.6,0.2C249.9,366.8,249.2,367.1,247.7,367.5z M314.9,337.5c-5.3-14.5-10.9-27.6-14.9-41.1
			c-9.9-34-10.7-69.1-10.9-104.2c-0.5-86.3-95.5-141.5-170.3-98.5c-37.9,21.9-58,55.2-58.3,99.6c-0.2,36.5-1.4,73-12.5,108.2
			c-3.8,12-8.8,23.5-13.5,35.8C128.3,337.5,221.4,337.5,314.9,337.5z M132.3,366.9c0.4,19.7,9.8,32.7,26.8,39.6
			c16.2,6.6,31.9,3.7,44.7-8.2c8.7-8.1,15.1-18,12.7-31.4C188,366.9,160.7,366.9,132.3,366.9z"/>
	</g>
	<ellipse class="st1" cx="403.3" cy="99.8" rx="92.9" ry="92.4"/>
</g>
</svg>
