<?xml version="1.0" encoding="utf-8"?>
<!-- Generator: Adobe Illustrator 25.2.1, SVG Export Plug-In . SVG Version: 6.00 Build 0)  -->
<svg version="1.1" id="Layer_1" xmlns="http://www.w3.org/2000/svg" xmlns:xlink="http://www.w3.org/1999/xlink" x="0px" y="0px"
	 viewBox="0 0 1080 270.6" style="enable-background:new 0 0 1080 270.6;" xml:space="preserve">
<style type="text/css">
	.st0{fill:#FFFFFF;}
</style>
<desc>Created with Sketch.</desc>
<path class="st0" d="M315,158.7v0.5c0,19.3-15.8,28.9-39.6,28.7h-50.2V82.5h49c21.5,0,34.9,10.6,34.9,27.2v0.2
	c0,11.9-6.4,18.6-13.9,22.8C307.3,137.6,315,144.6,315,158.7L315,158.7z M269.2,125c10.4,0,16.8-3.2,16.8-11.1v-0.5
	c0-6.9-5.4-10.9-15.3-10.9h-23v22.3h21.5V125z M275.4,167.8c10.1,0,16.3-3.5,16.3-11.4V156c0-7.2-5.2-11.4-17.1-11.4h-27v23.3
	L275.4,167.8L275.4,167.8z M542.5,158.9v0.5c0,19.3-15.8,28.9-39.6,28.7h-50.2V82.7h49c21.5,0,34.9,10.6,34.9,27.2v0.2
	c0,11.9-6.4,18.6-13.9,22.8C534.8,137.9,542.5,144.8,542.5,158.9L542.5,158.9z M496.7,125.3c10.4,0,16.8-3.2,16.8-11.1v-0.5
	c0-6.9-5.4-10.9-15.3-10.9h-23V125h21.5V125.3z M502.9,168.1c10.1,0,16.3-3.5,16.3-11.4v-0.5c0-7.2-5.2-11.4-17.1-11.4h-27v23.3
	L502.9,168.1L502.9,168.1z M428.2,82.7v105.4h-19.8l-51.2-67v67h-23V82.7h21.5l49.5,65.1V82.7H428.2L428.2,82.7z M88.2,39L37,68.4
	l18.8,10.9l32.4-18.6l32.4,18.6l18.8-10.9L88.2,39z M120.6,94.9l18.8,10.9v21.8L107,146.1v37.1L88.2,194l-18.8-10.9V146L37,127.5
	v-21.8l18.8-10.9l32.4,18.6L120.6,94.9L120.6,94.9z M139.4,143.1v21.8l-18.8,10.9V154L139.4,143.1L139.4,143.1z M120.4,191.1
	l32.4-18.6v-37.1l18.8-10.9v59.1L120.4,213C120.4,213,120.4,191.1,120.4,191.1z M152.8,98.1L134,87.2l18.8-10.9l18.8,10.9V109
	l-18.8,10.9V98.1L152.8,98.1z M69.4,220.8V199l18.8,10.9L107,199v21.8l-18.8,10.9L69.4,220.8L69.4,220.8z M55.8,175.7L37,164.9
	v-21.8L55.8,154V175.7L55.8,175.7z M88.2,98.1L69.4,87.2l18.8-10.9L107,87.2L88.2,98.1L88.2,98.1z M42.5,87.2L23.7,98.1v21.8
	L4.9,109V87.2l18.8-10.9L42.5,87.2z M4.9,124.3l18.8,10.9v37.1l32.4,18.6v21.8L4.9,183.2V124.3L4.9,124.3z M587,135.7
	c0,30.4,23,54.4,53.7,54.4c20,0,31.9-7.4,42.8-18.8l-11.9-12.1c-9.2,8.4-17.3,13.6-30.2,13.6c-20,0-34.9-16.8-34.9-37.8
	c0-20.8,14.6-37.4,34.9-37.4c12.1,0,21,5.2,29.4,13.1l11.9-13.6c-10.1-9.6-21.8-16.3-41.3-16.3C609.5,81,587,105.5,587,135.7z
	 M718.3,188.4v-44.5h50.5v44.5h18.6V82.7h-18.6v44h-50.5v-44h-18.6v105.6h18.6V188.4z M895.3,188.4h19.5L868.1,82H851l-46.5,106.4
	h19l10.9-25.5h50L895.3,188.4z M841.4,146.3l18.1-42.3l18.3,42.3H841.4L841.4,146.3z M952.8,188.4V82.7h-18.6v105.6h18.6V188.4z
	 M1075.1,82.7h-18.6v73l-56.6-73h-17.1v105.6h18.3v-75.2l58.4,75.2h15.6V82.7L1075.1,82.7z"/>
</svg>
