<?xml version="1.0" encoding="utf-8"?>
<!-- Generator: Adobe Illustrator 25.2.1, SVG Export Plug-In . SVG Version: 6.00 Build 0)  -->
<svg version="1.1" id="Layer_1" xmlns="http://www.w3.org/2000/svg" xmlns:xlink="http://www.w3.org/1999/xlink" x="0px" y="0px"
	 viewBox="0 0 500 500" style="enable-background:new 0 0 500 500;" xml:space="preserve">
<style type="text/css">
	.st0{fill:#FFFFFF;}
</style>
<path class="st0" d="M249.9,27.4L131.6,95.3l43.4,25.2l74.9-43l74.9,43l43.4-25.2L249.9,27.4z M324.7,156.5l43.4,25.2v50.4
	l-74.9,42.7v85.7l-43.4,25l-43.4-25.2v-85.7l-74.9-42.7v-50.4l43.4-25.2l74.9,43L324.7,156.5L324.7,156.5z M368.2,267.9v50.4
	l-43.4,25.2v-50.4L368.2,267.9L368.2,267.9z M324.3,378.8l74.9-43v-85.7l43.4-25.2v136.5l-118.3,67.9V378.8z M399.1,163.9
	l-43.4-25.2l43.4-25.2l43.4,25.2v50.4l-43.4,25.2V163.9L399.1,163.9z M206.4,447.4v-50.4l43.4,25.2l43.4-25.2v50.4l-43.4,25.2
	L206.4,447.4L206.4,447.4z M175,343.2l-43.4-25v-50.4l43.4,25.2V343.2L175,343.2z M249.9,163.9l-43.4-25.2l43.4-25.2l43.4,25.2
	L249.9,163.9L249.9,163.9z M144.3,138.8l-43.4,25.2v50.4l-43.4-25.2v-50.4l43.4-25.2L144.3,138.8z M57.4,224.5l43.4,25.2v85.7
	l74.9,43v50.4L57.4,360.6V224.5L57.4,224.5z"/>
</svg>
