<?xml version="1.0" encoding="utf-8"?>
<!-- Generator: Adobe Illustrator 25.2.1, SVG Export Plug-In . SVG Version: 6.00 Build 0)  -->
<svg version="1.1" id="Layer_1" xmlns="http://www.w3.org/2000/svg" xmlns:xlink="http://www.w3.org/1999/xlink" x="0px" y="0px"
	 viewBox="0 0 500 500" style="enable-background:new 0 0 500 500;" xml:space="preserve">
<style type="text/css">
	.st0{fill:#FFFFFF;}
</style>
<g>
	<path class="st0" d="M27.8,246.1c2.8-10,10.4-16.8,16.9-24.2c23.2-26.5,48.8-50.3,78-70.1c29-19.7,60.1-34.7,94.9-41.1
		c31.1-5.7,61.5-2.9,91.3,7c41.4,13.8,77,37.4,108.6,66.9c16.6,15.5,31.8,32.7,47.1,49.5c9.2,10,8.9,22.3,0.3,32.6
		c-25.9,31.3-54.7,59.5-88.4,82.4c-29,19.7-60.1,34.8-94.9,41.2c-31.1,5.7-61.5,3-91.3-6.9c-41.3-13.7-76.8-37.2-108.3-66.5
		c-16.9-15.7-32.1-33.1-47.7-50.1c-3-3.2-4.4-7.9-6.6-11.9C27.8,251.9,27.8,249,27.8,246.1z M352.8,251
		c0.7-56.6-45.1-103-102.6-103.8c-56.6-0.8-103,44.9-103.9,102.5c-1,56.7,45.3,103.5,102.8,104C305.8,354.3,352.1,308.4,352.8,251z"
		/>
	<path class="st0" d="M249.7,179.1c39.5,0.2,71.3,32.1,71.1,71.5c-0.2,39.5-32.1,71.3-71.5,71.1c-39.5-0.2-71.3-32.1-71.1-71.5
		C178.5,210.7,210.4,179,249.7,179.1z M204.7,245.1c7.9,0,15.5,0,23,0c1.4-8.7,5.8-14.2,14.6-15.7c0.8-0.1,1.8-1.4,1.9-2.2
		c0.1-7,0.1-14,0.1-21C223.3,205.2,204.1,224.2,204.7,245.1z"/>
</g>
</svg>
