<?xml version="1.0" encoding="utf-8"?>
<!-- Generator: Adobe Illustrator 25.2.1, SVG Export Plug-In . SVG Version: 6.00 Build 0)  -->
<svg version="1.1" id="Layer_1" xmlns="http://www.w3.org/2000/svg" xmlns:xlink="http://www.w3.org/1999/xlink" x="0px" y="0px"
	 viewBox="0 0 500 500" style="enable-background:new 0 0 500 500;" xml:space="preserve">
<style type="text/css">
	.st0{fill:#FFFFFF;}
</style>
<g>
	<path class="st0" d="M464.4,262.1c-1.1,8.1-1.9,16.2-3.3,24.3c-8.7,49.6-32.2,90.9-69.8,124.1c-32,28.2-69.3,45.1-111.5,50.9
		c-9.2,1.3-18.6,1.6-27.9,2c-8.1,0.3-13.9-5-14-12.2c-0.1-7.3,5.4-12.7,13.6-12.7c30.3-0.3,59.2-6.9,85.8-21.4
		c57.4-31.2,91.3-79.3,100.4-144.2c4.6-32.9-0.3-64.4-16-93.9c-14.4-26.9-35.3-47.4-62.4-61.5c-21.1-11-43.8-16.5-67.5-16.5
		c-37.3,0-70.5,12.1-98.7,36.7c-24.7,21.6-40.8,48.5-47.5,80.5c-2.3,11-3,22.3-3.7,33.6c-1.6,26.9-22.7,49-48.5,50.3
		c-28.6,1.5-52.3-17.2-56.3-44.9c-2.1-14.2-0.2-28.4,2.1-42.4c8.7-52.2,33.6-95.4,74-129.5C145.6,58.2,183,42.2,225,37.2
		c4.3-0.5,8.5-1.1,12.8-1.6c8.4,0,16.7,0,25.1,0c1.4,0.3,2.7,0.6,4.1,0.7c7.9,1,15.8,1.6,23.6,3.1c41.1,7.8,76.9,26.2,107.2,55.1
		c34.1,32.5,55.4,72.1,63.4,118.6c1.4,8.2,2.2,16.5,3.3,24.7C464.4,246,464.4,254.1,464.4,262.1z"/>
</g>
</svg>
