<?xml version="1.0" encoding="utf-8"?>
<!-- Generator: Adobe Illustrator 25.2.1, SVG Export Plug-In . SVG Version: 6.00 Build 0)  -->
<svg version="1.1" id="Layer_1" xmlns="http://www.w3.org/2000/svg" xmlns:xlink="http://www.w3.org/1999/xlink" x="0px" y="0px"
	 viewBox="0 0 500 500" style="enable-background:new 0 0 500 500;" xml:space="preserve">
<style type="text/css">
	.st0{fill:#FFFFFF;}
</style>
<g>
	<path class="st0" d="M217.9,464c-7.5-1.1-15.1-2-22.6-3.2c-33.3-5.5-63.5-18.6-90.7-38.6c-18.5-13.6-34.4-29.9-47.7-48.6
		c-0.8-1.1-1.6-2.3-2.5-3.6c17.9-10.6,35.7-21.2,53.8-32c26.8,35.8,62,57.5,106.7,62.5c32.4,3.7,63.1-2.8,91.4-19.2
		c59.1-34.2,85.6-100.1,72.7-162.2c-12.8-61.7-68.3-118.6-147.4-119.9c0-20.6,0-41.2,0-62.8c9.6,0.8,19.2,1,28.6,2.5
		c69.8,10.7,122.5,46.9,157.8,108c15.5,26.8,24.6,56,26.1,87c4.4,89.9-32.8,157.7-109.9,203.5c-26.4,15.7-55.6,23.6-86.2,25.9
		c-1.4,0.1-2.7,0.5-4.1,0.7C235.1,464,226.5,464,217.9,464z"/>
	<path class="st0" d="M342.3,250.4c0,61.3-49.7,111.1-111,111.1c-61.3,0-111.1-49.7-111.1-111.1c0-61.4,49.7-111.1,111.1-111.1
		C292.6,139.3,342.3,189,342.3,250.4z"/>
</g>
</svg>
