<?xml version="1.0" encoding="utf-8"?>
<!-- Generator: Adobe Illustrator 25.2.1, SVG Export Plug-In . SVG Version: 6.00 Build 0)  -->
<svg version="1.1" id="Layer_1" xmlns="http://www.w3.org/2000/svg" xmlns:xlink="http://www.w3.org/1999/xlink" x="0px" y="0px"
	 viewBox="0 0 500 500" style="enable-background:new 0 0 500 500;" xml:space="preserve">
<style type="text/css">
	.st0{fill:#FFFFFF;}
</style>
<g>
	<path class="st0" d="M150.9,464.5c0-14.6,0-29.3,0-43.9c0-10.2,2.9-13.7,12.9-15.7c0.6-10.7,3-13.6,12.9-15.3
		c-0.3-2.6-0.5-5.2-0.8-7.8c-3-23.2,3.2-44.3,13.7-64.7c13.7-26.5,32.3-49.3,52.8-70.8c6-6.3,12.1-12.6,18.9-19.8
		c-3.8,0.5-6.3,0.9-8.9,1.1c-12.6,1.2-24.8-1-36.5-5.4c-12.7-4.8-23.3-2.6-32.7,7.1c-6.4,6.6-13.8,12-23,13.6
		c-18.6,3.2-40.8-3.8-45.6-27.8c-0.3-1.8-0.7-3.6-0.5-5.4c0.8-5.8,1.2-11.4,0.2-17.3c-0.9-5.1,3-8.8,6.6-11.9
		c13.5-11.7,27.4-22.9,40.5-35c8.4-7.8,16-16.7,23.4-25.5c5.9-7,12.5-12.5,21.3-15.5c3.9-1.4,7.7-3.3,11.6-4.7
		c6.1-2.2,8.7-6.4,8.6-12.8c-0.1-7.4,0.1-7.5,7.4-9c2.3-0.5,4.7-0.8,7-1.2c6.3-1.2,8.4-3.5,8.5-9.9c0.1-5.3-0.4-10.6-0.4-15.9
		c0.1-4.7,0.5-9.4,0.8-14c0.4-0.3,0.8-0.5,1.2-0.8c5.3,5.4,10.9,10.5,15.9,16.1c3.8,4.4,6.5,9.7,10.4,14.1c2.7,3.1,6.1,6.7,9.8,7.8
		c50.6,15.9,79.3,51.7,93,101.3c6.2,22.4,6.3,45.1,3.1,68c-3.3,23.6-11,45.9-17.5,68.7c-5.8,20.5-10.9,41.1-15.8,61.8
		c-1.1,4.8-0.2,10.2-0.2,15.2c13.9,2.5,14.9,3.5,15.7,15.3c0.4,0.1,0.9,0.2,1.4,0.3c8.2,1.5,11.6,5.6,11.7,14.1
		c0.1,15,0.1,30.1,0.1,45.1C302.5,464.5,226.7,464.5,150.9,464.5z"/>
</g>
</svg>
