<?xml version="1.0" encoding="utf-8"?>
<!-- Generator: Adobe Illustrator 25.2.1, SVG Export Plug-In . SVG Version: 6.00 Build 0)  -->
<svg version="1.1" id="Layer_1" xmlns="http://www.w3.org/2000/svg" xmlns:xlink="http://www.w3.org/1999/xlink" x="0px" y="0px"
	 viewBox="0 0 500 500" style="enable-background:new 0 0 500 500;" xml:space="preserve">
<style type="text/css">
	.st0{fill:#FFFFFF;}
</style>
<g>
	<path class="st0" d="M467,205.6c-3,4-5.4,8.6-9,12c-29.6,29.2-59.4,58.2-89.3,87.2c-2.2,2.1-2.9,4-2.4,7
		c7.2,41.5,14.4,83,21.4,124.5c0.7,4.1,0.6,8.5-0.2,12.5c-1.1,5.3-5.5,8.1-10.8,7.1c-4.2-0.8-8.4-2.4-12.2-4.4
		c-36.6-19.1-73.1-38.3-109.5-57.6c-3.1-1.7-5.5-1.9-8.8-0.1c-36.6,19.4-73.2,38.6-109.9,57.8c-2.9,1.5-5.8,2.9-8.9,3.8
		c-8.6,2.4-14.9-2-14.7-10.9c0.2-7.4,1.5-14.8,2.8-22.2c6.3-36.8,12.6-73.5,19.1-110.3c0.6-3.1-0.3-5.1-2.5-7.3
		c-29.9-28.9-59.7-57.9-89.5-87c-2.5-2.4-4.9-5.1-6.7-8.1c-3.9-6.6-2-13.2,5.1-15.9c5.2-2,10.8-2.9,16.4-3.8
		c39.3-5.8,78.6-11.5,117.9-17.1c3.2-0.5,4.5-1.9,5.8-4.5c18.3-37.1,36.6-74.2,55-111.3c1.7-3.5,3.7-7,6.3-9.9
		c4.5-5.3,11.3-5.3,15.8-0.1c2.6,2.9,4.7,6.4,6.4,9.8c18.5,37.2,36.9,74.4,55.2,111.7c1.3,2.6,2.8,3.9,5.9,4.4
		c42.1,6,84.2,12.2,126.3,18.3c6.4,0.9,11.9,3.2,15,9.4C467,202.2,467,203.9,467,205.6z M251.3,104.9c-0.3,0.1-0.5,0.1-0.8,0.2
		c0,0.7-0.1,1.3-0.1,2c0,81.2,0,162.4-0.1,243.5c0,2.5,0.9,3.7,3,4.8c30.5,16,61,32.1,91.5,48.2c1,0.5,2.1,0.9,3.7,1.6
		c-6.1-35.6-12-70.5-18.1-105.5c-0.5-2.9,0.1-4.6,2.2-6.6c24.5-23.7,49-47.5,73.4-71.2c0.9-0.9,1.7-1.9,2.7-3
		c-0.8-0.4-1-0.6-1.2-0.6c-34.8-5.1-69.6-10.3-104.5-15.3c-2.6-0.4-3.9-1.4-5-3.6c-5.7-11.6-11.5-23.2-17.2-34.8
		C271,144.8,261.1,124.8,251.3,104.9z"/>
</g>
</svg>
