<?xml version="1.0" encoding="utf-8"?>
<!-- Generator: Adobe Illustrator 25.2.1, SVG Export Plug-In . SVG Version: 6.00 Build 0)  -->
<svg version="1.1" id="Layer_1" xmlns="http://www.w3.org/2000/svg" xmlns:xlink="http://www.w3.org/1999/xlink" x="0px" y="0px"
	 viewBox="0 0 500 500" style="enable-background:new 0 0 500 500;" xml:space="preserve">
<style type="text/css">
	.st0{fill:#FFFFFF;}
</style>
<g>
	<path class="st0" d="M32.5,64.7c2.1-3.4,5.1-4.3,9-4.3c128.3,0.1,256.7,0.1,385,0.1c7.1,0,8.9,1.9,8.9,9.1c0,86.5,0,173,0,259.5
		c0,7.2-1.8,8.5-9.1,9c-5.3,0.4-8.9-1.5-12.4-5.3c-10-10.9-20.5-21.5-30.8-32.2c-0.9-1-1.8-2-3.4-3.7c5.1,0,9.4,0,13.9,0
		c0-65.2,0-129.8,0-194.7c-106.4,0-212.8,0-319.4,0c0,64.7,0,129.4,0,194.6c1.8,0,3.6,0,5.4,0c57.9,0,115.9,0,173.8-0.1
		c3.3,0,5.4,0.7,7.2,3.7c7.1,12,16.7,20.5,31.6,21.3c0.8,0,1.9,0.7,2.4,1.4c3.7,4.6,7.3,9.3,11.3,14.5c-1.6,0.2-2.6,0.5-3.6,0.5
		c-87.2,0-174.4,0-261.6,0.1c-3.8,0-6.6-1.1-8.4-4.5C32.5,244,32.5,154.4,32.5,64.7z"/>
	<path class="st0" d="M454.5,440.4c-3.8-1.6-10.4-3.7-16.4-7c-20.4-10.9-38.3-25.5-55.6-40.7c-23.5-20.5-45.1-42.7-65.5-66.3
		c-5.5-6.4-5.1-9.2,2-13.8c8.4-5.4,15-12.3,19-21.6c2.7-6.1,6.9-6.9,12-2.5c32,27.3,61.8,56.8,87.4,90.3
		c9.5,12.4,17.2,26.1,25.3,39.5c2.1,3.4,3,7.6,3.7,11.6C467.7,436.6,464,440.6,454.5,440.4z"/>
	<path class="st0" d="M257.1,200.5c-5.7,2.5-11.7,5.3-17.7,7.9c-11.4,4.9-22.7,10-34.3,14.4c-7.2,2.7-14.8,2.8-21.6-1.6
		c-8.7-5.6-11.9-15.4-7.9-26.6c2.7-7.4,6.6-14.3,10.1-21.4c2.1-4.3,4.3-8.5,6.4-12.7c-0.3-0.3-0.6-0.6-1-0.9
		c-4.4,3.3-8.9,6.4-13.2,9.9c-5.9,4.8-11.6,9.9-17.5,14.7c-1.6,1.3-3.4,2.5-5.3,3.5c-4.5,2.4-8.5,0.9-9.9-4.1
		c-1-3.7-2.1-7.4-2.3-11.2c-0.1-2.3,1-5.5,2.6-7c9-7.8,18-15.4,27.5-22.5c7.9-5.9,16.7-10.2,27.2-7.8c10.8,2.5,18.2,12.3,16.4,23.3
		c-1.1,6.7-3.7,13.3-6.4,19.5c-3.2,7.2-7.3,13.9-11,20.8c0.2,0.3,0.5,0.6,0.7,0.9c4.5-1.9,9-3.7,13.4-5.6
		c14.4-6.1,28.7-12.4,43.2-18.3c5.8-2.3,12.1-2.6,18.3-0.8c12.8,3.7,18.4,17.5,11.2,28.7c-3.8,6-8.8,11.4-13.4,16.9
		c-1,1.2-2.8,1.9-4.4,2.4c-4.2,1.3-8.3,2.8-12.6,3.4c-2.2,0.4-5.6,0-6.8-1.4c-1.4-1.6-2.1-5.3-1.2-7.2
		C250.3,211.8,253.8,206.3,257.1,200.5z"/>
	<path class="st0" d="M333,270.1c-0.1,20.9-16,38.6-32.6,39.9c-10,0.8-17-4.3-22.5-11.8c-6.5-8.8-8.7-19.2-10.4-29.7
		c-1.4-8.7-3.2-17.1-8.7-24.4c-2.9-3.8-0.9-8.8,3.6-9.6c19.3-3.4,37.8-2.1,54.4,9.6C326.8,251.3,332.9,261,333,270.1z"/>
</g>
</svg>
