<?xml version="1.0" encoding="utf-8"?>
<!-- Generator: Adobe Illustrator 25.2.1, SVG Export Plug-In . SVG Version: 6.00 Build 0)  -->
<svg version="1.1" id="Layer_1" xmlns="http://www.w3.org/2000/svg" xmlns:xlink="http://www.w3.org/1999/xlink" x="0px" y="0px"
	 viewBox="0 0 500 500" style="enable-background:new 0 0 500 500;" xml:space="preserve">
<style type="text/css">
	.st0{fill:#FFFFFF;}
</style>
<g>
	<path class="st0" d="M253.8,33c23.6,11.9,47.2,23.7,70.9,35.6c35.6,17.8,71.2,35.7,106.9,53.3c7.1,3.5,10.1,8.5,10.1,16.3
		c0.1,63.6-10.8,125-37.3,183.2c-23.6,52-58.5,94.5-108.1,123.7c-12.3,7.3-25.7,12.8-38.6,19.1c-4.9,2.4-9.6,2-14.6,0
		c-63-25.1-108.9-68.9-139.9-128.7c-20.4-39.3-32.3-81.2-38.9-124.8c-3.6-24-5.3-48.2-5.2-72.5c0-7.8,3-12.8,10.1-16.3
		c59.2-29.3,118.2-58.9,177.3-88.4c0.2-0.1,0.4-0.4,0.5-0.6C249.3,33,251.6,33,253.8,33z M390.1,168.5c0.7-7.1-2.5-11.7-8.8-14.9
		c-41.2-20.5-82.4-41.1-123.5-61.7c-5.1-2.6-9.7-2.5-14.8,0c-41.2,20.7-82.5,41.4-123.8,61.9c-6,3-9,7.4-8.4,14.2
		c1.1,11.1,1.9,22.2,3.5,33.2c5.2,36.9,14.9,72.5,31.4,106c21.6,43.9,52.8,78.5,96.7,101.1c5.5,2.8,10.5,2.9,16,0
		c33.6-17.3,60.5-42,81-73.7C372.1,284.2,385.3,227.6,390.1,168.5z"/>
	<path class="st0" d="M364.8,177.4c-6.6,53.5-19.5,104-50.1,148.5c-15.9,23.2-36.1,42-60.6,56c-2.7,1.5-4.6,1.5-7.3,0
		c-32.8-18.7-56.9-45.6-74.5-78.7c-18.3-34.5-28.3-71.6-33.5-110.1c-0.7-5.4-1.1-10.9-1.8-16.4c-0.3-2.2,0.2-3.6,2.4-4.6
		c36.3-18.1,72.5-36.2,108.8-54.3c1.3-0.6,3.3-0.6,4.6,0c36.3,18,72.6,36.1,108.7,54.4C363,173.1,363.7,175.7,364.8,177.4z"/>
</g>
</svg>
