<?xml version="1.0" encoding="utf-8"?>
<!-- Generator: Adobe Illustrator 25.2.1, SVG Export Plug-In . SVG Version: 6.00 Build 0)  -->
<svg version="1.1" id="Layer_1" xmlns="http://www.w3.org/2000/svg" xmlns:xlink="http://www.w3.org/1999/xlink" x="0px" y="0px"
	 viewBox="0 0 500 500" style="enable-background:new 0 0 500 500;" xml:space="preserve">
<style type="text/css">
	.st0{fill:#FFFFFF;}
</style>
<g>
	<path class="st0" d="M45.2,249.6c1-7.2,1.8-14.5,3.1-21.6c10.2-53.7,38.2-95.8,83.5-126.1c34.1-22.8,71.9-33.1,112.9-31.7
		c23.8,0.8,46.5,6.4,68.3,15.9c0.6,0.3,1.1,0.7,1.8,1.1c-4.7,7.5-5.7,15.7-5.4,24.2c0.2,7.2-0.2,14.4,0.1,21.6
		c0.2,4.4-0.8,7.7-4.4,10.3c-1.1,0.9-2,2.1-3.1,3.4c-37.4-19.8-75.7-22.4-114.7-6.6c-28.5,11.5-50.3,31.3-65,58.1
		c-29.1,53-18.5,117.5,24.2,158.3c47.3,45.3,116.3,47.3,165.6,13.8c51.6-35.2,76-108.7,40.4-173.4c2.1-1.9,4.3-4.1,6.7-5.9
		c1-0.8,2.6-1.1,4-1.1c7.7-0.1,15.4-0.1,23.2-0.1c13.7,0,13.7,0,26.7-5.5c3.4,10.5,7.4,20.8,10.2,31.4
		c26.1,101.1-35.8,206.4-138.8,232.5c-98,24.8-196.8-30.2-229.5-126.6C50,307,47,292.2,45.9,277c-0.1-1.2-0.5-2.3-0.7-3.5
		C45.2,265.6,45.2,257.6,45.2,249.6z"/>
	<path class="st0" d="M395.7,45.2c7.1,2.6,9.8,7.7,9.7,15.1c-0.3,11-0.1,22-0.1,33.6c3.3,0,6.5,0,9.6,0c8.5,0,17,0,25.5,0
		c5.7,0,10.2,2,12.5,7.4c2.3,5.4,0.5,10.1-3.5,14.1c-15.6,15.4-31.3,30.8-46.9,46.2c-3,3-6.5,4.3-10.8,4.2c-12.5-0.1-25,0-37.5-0.1
		c-2.8,0-4.7,0.8-6.6,2.8c-33.2,33.3-66.6,66.6-99.8,99.9c-3.8,3.8-7.9,6.3-13.5,4.6c-8.1-2.5-11.2-11.8-6.1-18.6
		c1-1.4,2.3-2.6,3.5-3.8c32.9-32.9,65.8-65.9,98.8-98.7c2.1-2.1,3.1-4.2,3-7.3c-0.2-12.4,0-24.7-0.1-37.1c0-4.4,1.4-8,4.5-11.1
		c15.2-15.4,30.4-30.9,45.7-46.3c1.9-1.9,4.4-3.3,6.6-4.9C392,45.2,393.9,45.2,395.7,45.2z"/>
	<path class="st0" d="M284.1,165c-3.6,3.4-6.9,6.3-10,9.4c-12.4,12.4-24.8,24.9-37.3,37.2c-1.5,1.4-3.8,2.5-5.8,2.8
		c-22.7,2.8-40.8,23-41.2,46.3c-0.4,23.8,17,44.8,39.9,48.1c27.8,4,51.3-13.6,55.2-41.5c0.2-1.3,0.8-2.9,1.7-3.8
		c15.6-15.7,31.2-31.3,46.8-46.9c0.3-0.3,0.7-0.4,1-0.5c20.4,39.7,12.7,94.9-28.7,128.9c-42.2,34.6-103.2,32-143.1-6
		c-37.1-35.3-43.5-95.7-14.1-138C180.1,155.7,237.4,142.1,284.1,165z"/>
</g>
</svg>
