<?xml version="1.0" encoding="utf-8"?>
<!-- Generator: Adobe Illustrator 25.2.1, SVG Export Plug-In . SVG Version: 6.00 Build 0)  -->
<svg version="1.1" id="Layer_1" xmlns="http://www.w3.org/2000/svg" xmlns:xlink="http://www.w3.org/1999/xlink" x="0px" y="0px"
	 viewBox="0 0 500 500" style="enable-background:new 0 0 500 500;" xml:space="preserve">
<style type="text/css">
	.st0{fill:#FFFFFF;}
</style>
<g>
	<path class="st0" d="M346.1,347.1c-5.2,19.4-13.2,37.5-25.1,53.7c-24.3,33.4-56.6,54.5-96.9,63.2c-7.3,1.6-14.7,2.4-22.1,3.5
		c-6.2,0-12.4,0-18.7,0c-1.2-0.2-2.5-0.6-3.7-0.7c-17.5-1.1-34.5-4.9-50.3-12.2C75.5,430,43.3,388.4,34.1,329.5
		c-0.7-4.3-1.1-8.6-1.6-12.9c0-6.2,0-12.4,0-18.7c1.4-8.5,2.3-17,4.3-25.4c8.7-37.8,28.9-68.2,59.7-91.6c17-12.9,36-21.6,56.5-27
		l-0.1-0.2c-0.2,1-0.2,2-0.5,2.9c-5.2,22.8-5.5,45.7-0.7,68.5c7.3,34.6,24.3,63.9,51,87.1c30.9,26.9,67,40.1,107.9,39.2
		c11.9-0.3,23.8-2.8,35.6-4.2L346.1,347.1z"/>
	<path class="st0" d="M152.9,153.9c4.2-14.9,9.6-29.2,17.7-42.4c24.2-39.6,58.8-65.7,104.4-74.4c65.1-12.3,119.4,8,159.8,60.6
		c45.6,59.4,41.9,142.5-7.1,199c-21.2,24.5-47.5,40.9-78.7,49.5c-1,0.3-1.9,0.6-2.8,0.9c0,0,0.2,0.1,0.2,0.1c0.2-1,0.2-2,0.5-2.9
		c5.2-22.8,5.5-45.7,0.7-68.5c-7.3-34.6-24.3-63.9-51-87.1c-30.9-26.9-67-40.1-107.9-39.2c-11.9,0.3-23.8,2.8-35.6,4.2
		C152.8,153.7,152.9,153.9,152.9,153.9z"/>
</g>
</svg>
