<?xml version="1.0" encoding="utf-8"?>
<!-- Generator: Adobe Illustrator 25.2.1, SVG Export Plug-In . SVG Version: 6.00 Build 0)  -->
<svg version="1.1" id="Layer_1" xmlns="http://www.w3.org/2000/svg" xmlns:xlink="http://www.w3.org/1999/xlink" x="0px" y="0px"
	 viewBox="0 0 500 500" style="enable-background:new 0 0 500 500;" xml:space="preserve">
<style type="text/css">
	.st0{fill:#FFFFFF;}
</style>
<g>
	<path class="st0" d="M249.4,342.3c-20.7,21.2-41.2,42.1-61.6,62.9c-7.1,7.2-14.4,14.3-21.6,21.5c-14.8,14.7-37.7,14.9-52.1,0.5
		c-14.5-14.5-14.3-37.5,0.6-52.4c41.5-41.5,83-83,124.5-124.5c7.6-7.6,14.8-7.6,22.3,0c41,41.2,82,82.4,123,123.6
		c10.3,10.4,13.8,22.8,9.8,36.7c-3.9,13.5-13.1,22.2-26.8,25.3c-13.4,3.1-25-0.8-34.7-10.4c-17.4-17.4-34.8-34.8-52.2-52.2
		c-9.1-9.1-18.3-18.3-27.4-27.4C252.5,345.1,251.5,344.3,249.4,342.3z"/>
	<path class="st0" d="M249.9,160c-1.3,1.7-2.2,3.1-3.4,4.3c-25.8,25.9-51.7,51.8-77.6,77.6c-11.2,11.2-27.1,14.3-41.1,8.1
		c-13.9-6.1-22.4-19.9-21.7-35.4c0.4-8.9,3.7-16.8,10.1-23.2c41.5-41.5,83-83,124.5-124.5c5.9-5.9,13.6-5.9,19.6,0.1
		c41.8,41.8,83.7,83.5,125.3,125.4c14,14.1,13.8,36.7,0.1,50.8c-13.8,14.2-36.2,15.2-50.7,1.4c-17.5-16.7-34.4-34.1-51.5-51.2
		c-9.9-9.9-19.9-19.9-29.8-29.8C252.7,162.7,251.7,161.8,249.9,160z"/>
</g>
</svg>
