<?xml version="1.0" encoding="utf-8"?>
<!-- Generator: Adobe Illustrator 25.2.1, SVG Export Plug-In . SVG Version: 6.00 Build 0)  -->
<svg version="1.1" id="Layer_1" xmlns="http://www.w3.org/2000/svg" xmlns:xlink="http://www.w3.org/1999/xlink" x="0px" y="0px"
	 viewBox="0 0 500 500" style="enable-background:new 0 0 500 500;" xml:space="preserve">
<style type="text/css">
	.st0{fill:#FFFFFF;}
</style>
<path class="st0" d="M173.2,234.4c15.6,0,30.6,0,46.2,0c0-1.9,0-3.5,0-5.3c0-18.1,0.1-36.3,0-54.4c0-5.5,1.8-9.9,5.6-13.8
	c19.9-19.8,39.7-39.6,59.5-59.5c3.7-3.7,8-5.5,13.3-5.5c50.3,0.1,100.7,0,151,0c10.4,0,16.8,6.3,16.8,16.7c0,50.3,0,100.7,0.1,151.1
	c0,5.5-1.9,9.9-5.8,13.7c-19.8,19.7-39.5,39.4-59.2,59.2c-3.8,3.8-8.3,5.7-13.8,5.7c-50.1-0.1-100.4,0-150.5,0
	c-10.8,0-17-6.2-17-16.9c0-9.5-0.1-18.9,0-28.4c0.1-9.4,6.6-16.3,15.4-16.3s15.3,6.9,15.4,16.3c0.1,4.6,0,9.3,0,14.2
	c41.1,0,81.9,0,122.9,0c0-40.8,0-81.5,0-122.4c-40.7,0-81.5,0-122.5,0c0,15.1,0,30.1,0,45.8c11.1,0,22.1,0.1,33.1-0.1
	c1.2,0,2.6-1.6,3.4-2.7c9-11.4,23.1-15.6,36.1-10.3c12.7,5.1,20.8,18.4,19.2,31.8c-1.6,13.9-11.9,24.9-26,27.1
	c-11.9,1.9-21.6-2.7-29.3-11.9c-1.2-1.4-3.2-2.9-4.8-2.9c-35.8-0.2-71.5-0.1-107.3-0.1c-0.5,0-0.9,0.2-2,0.4c0,1.9,0,3.6,0,5.5
	c0,48.1,0,96.2,0,144.3c0,13.7-5.4,19.1-19.3,19.1c-8.4,0-16.6,0.1-25-0.1c-3.3-0.1-5,0.7-6.5,3.9c-9.4,20.2-30.8,30.6-52.1,25.7
	c-21.2-4.9-36.1-24.2-35.7-46c0.4-20.9,15.5-39.4,35.9-43.9c21-4.7,42.4,5.4,51.5,25c1.8,3.7,3.6,4.9,7.5,4.6
	c4.1-0.3,8.3-0.1,12.6-0.1c0-25.7,0-51,0-76.9c-5.5,0-11-0.2-16.5,0.2c-1.2,0.1-2.5,2.6-3.3,4.1c-12.6,26.2-45,34.6-68.5,17.7
	c-15.6-11.2-22.6-30.8-17.6-49.4c5-18.7,21.1-32.2,40.3-34.2c18.8-1.9,37.2,8.5,45.4,26c1.7,3.6,3.5,5,7.5,4.7
	c4.1-0.3,8.3-0.1,12.6-0.1c0-30.8,0-61.3,0-92.4c-5.4,0-11-0.2-16.5,0.2c-1.1,0.1-2.3,2.3-3.1,3.6c-8.8,17.2-22.8,26.7-42.2,26.9
	c-23.2,0.1-42.2-17.2-45.5-40.8c-3-21.2,11.2-43,32.2-49.4c21.8-6.7,45.1,3.3,54.9,24c1.9,3.8,3.8,5.1,7.9,4.7
	c3.9-0.4,8-0.1,12.2-0.1c0-25.6,0-50.9,0-76.9c-5.3,0-10.9-0.2-16.5,0.2c-1.1,0.1-2.4,2.2-3.1,3.6c-8.8,17.3-22.7,26.8-42.2,26.9
	c-22.9,0-41.8-17.2-45.2-40.9c-3-21.2,11.2-43,32.2-49.4c21.8-6.7,45.1,3.3,54.9,23.9c1.8,3.8,3.7,5,7.9,4.8
	c8.2-0.4,16.4-0.1,24.5-0.1c13.1,0,18.8,5.6,18.8,18.6c0,48.1,0,96.2,0,144.3C173.2,230,173.2,231.9,173.2,234.4z M413.3,126.7
	c-37,0-72.6,0-108.2,0.1c-1.5,0-3.3,1-4.4,2.1c-8.8,8.7-17.5,17.3-26.2,26.1c-0.6,0.6-1,1.4-1.7,2.5c36.2,0,71.7,0,107.3,0
	c1.2,0,2.7-0.4,3.4-1.1C393.2,146.9,402.7,137.2,413.3,126.7z M434.9,148.5c-9.9,10-19.1,19-28,28.2c-1.6,1.6-2.7,4.3-2.8,6.6
	c-0.2,34-0.1,67.9-0.1,101.9c0,1.2,0.2,2.4,0.3,4.4c9.7-9.7,18.8-18.6,27.6-27.9c1.6-1.6,2.7-4.3,2.8-6.6
	c0.2-28.2,0.1-56.3,0.1-84.6C434.9,163.6,434.9,156.8,434.9,148.5z M80.7,65.1c-8.4,0.1-15.3,7-15.3,15.4s6.9,15.4,15.3,15.4
	c8.6,0.1,15.7-7.1,15.5-15.7C96.1,71.9,89.1,65.1,80.7,65.1z M80.8,172.9c-8.4,0-15.3,6.9-15.4,15.3c0,8.4,6.8,15.4,15.2,15.5
	c8.6,0.1,15.7-7,15.6-15.6C96.2,179.8,89.2,172.9,80.8,172.9z M96.2,311.3c-0.1-8.4-7.1-15.3-15.5-15.2c-8.4,0-15.3,6.9-15.4,15.3
	c0,8.6,7.1,15.7,15.7,15.5C89.5,326.8,96.3,319.7,96.2,311.3z M81,403.9c-8.4-0.1-15.4,6.8-15.5,15.2c-0.1,8.4,6.7,15.5,15,15.7
	c8.6,0.2,15.8-6.8,15.8-15.4C96.2,411,89.3,404,81,403.9z"/>
</svg>
