<?xml version="1.0" encoding="utf-8"?>
<!-- Generator: Adobe Illustrator 25.2.1, SVG Export Plug-In . SVG Version: 6.00 Build 0)  -->
<svg version="1.1" id="Layer_1" xmlns="http://www.w3.org/2000/svg" xmlns:xlink="http://www.w3.org/1999/xlink" x="0px" y="0px"
	 viewBox="0 0 1080 270.6" style="enable-background:new 0 0 1080 270.6;" xml:space="preserve">
<style type="text/css">
	.st0{fill:#FFFFFF;}
	.st1{opacity:0.6;enable-background:new    ;}
	.st2{opacity:0.45;fill:#E6E6E6;enable-background:new    ;}
	.st3{opacity:0.8;fill:#CCCCCC;enable-background:new    ;}
</style>
<g>
	<g id="Layer_2_1_">
		<g id="Layer_1-2">
			<path class="st0" d="M306.2,155.7c0,2-1.6,3.5-3.6,3.5h-66.3c1.7,16.4,14,31.4,31.4,31.4c11.9,0,20.7-4.5,27.3-14
				c0.6-1,1.7-1.7,2.9-1.7c1.8-0.1,3.2,1.3,3.3,3.1c0,0.1,0,0.1,0,0.2c0,0.6-0.2,1.2-0.5,1.7c-6.7,11.6-20,17.3-33,17.3
				c-22.3,0-38.3-20-38.3-41.3s15.9-41.3,38.3-41.3S306.1,134.4,306.2,155.7L306.2,155.7z M299.1,152.6c-1.4-16.4-14-31.4-31.4-31.4
				s-29.7,15-31.4,31.4H299.1z"/>
			<path class="st0" d="M386.8,116.2c1.8,0.1,3.2,1.5,3.3,3.3c0.1,1.8-1.3,3.2-3.1,3.3c-0.1,0-0.1,0-0.2,0H369v69.9
				c0,1.8-1.5,3.3-3.3,3.3c-1.8-0.1-3.2-1.5-3.3-3.3v-69.9h-17.1c-1.8,0.1-3.2-1.3-3.3-3.1c0-0.1,0-0.1,0-0.2c0-1.8,1.5-3.3,3.3-3.3
				h17.1V90.7c0-1.7,1.3-3.2,3-3.5c1.8-0.2,3.4,1,3.7,2.8c0,0.2,0,0.3,0,0.5v25.7H386.8z"/>
			<path class="st0" d="M495.3,150v42.3c-0.1,1.8-1.5,3.2-3.3,3.3s-3.2-1.3-3.3-3.1c0-0.1,0-0.1,0-0.2V150c0-14.3-8.1-28.5-24-28.5
				c-20.4,0-29.2,17.8-28,36.1c0,0.5,0.2,2.6,0.2,2.9v31.7c0,1.7-1.3,3.2-3,3.5c-1.8,0.2-3.4-1-3.7-2.8c0-0.2,0-0.3,0-0.5V53.3
				c0-1.8,1.5-3.3,3.3-3.3c1.8,0.1,3.2,1.5,3.3,3.3v78.6c5.7-10.2,15.9-17.1,27.8-17.1C484.2,114.8,495.3,131.9,495.3,150z"/>
			<path class="st0" d="M614.4,155.7c0,2-1.6,3.5-3.6,3.5h-66.3c1.7,16.4,14,31.4,31.4,31.4c11.9,0,20.7-4.5,27.3-14
				c0.6-1,1.7-1.7,2.9-1.7c1.8-0.1,3.2,1.3,3.3,3.1c0,0.1,0,0.1,0,0.2c0,0.6-0.2,1.2-0.5,1.7c-6.7,11.6-20,17.3-33,17.3
				c-22.3,0-38.3-20-38.3-41.3s15.9-41.3,38.3-41.3C598.1,114.6,614.3,134.4,614.4,155.7L614.4,155.7z M607.2,152.6
				c-1.4-16.4-14-31.4-31.4-31.4s-29.7,15-31.4,31.4H607.2z"/>
			<path class="st0" d="M695.9,119.3c0.1,1.8-1.3,3.5-3.1,3.6c-19.5,2.9-28.3,18.8-28.3,37.3v31.7c0,1.7-1.3,3.2-3,3.5
				c-1.8,0.2-3.4-1-3.7-2.8c0-0.2,0-0.3,0-0.5v-72.3c0-1.7,1.3-3.2,3-3.5c1.8-0.2,3.4,1,3.7,2.8c0,0.2,0,0.3,0,0.5v14.7
				c5.5-9.3,16.4-18.1,27.8-18.1C694,116.2,695.9,117.4,695.9,119.3z"/>
			<path class="st0" d="M804.9,155.7c0,2-1.6,3.5-3.6,3.5H735c1.7,16.4,14,31.4,31.4,31.4c11.9,0,20.7-4.5,27.3-14
				c0.6-1,1.7-1.7,2.9-1.7c1.8-0.1,3.2,1.3,3.3,3.1c0,0.1,0,0.1,0,0.2c0,0.6-0.2,1.2-0.5,1.7c-6.7,11.6-20,17.3-33,17.3
				c-22.3,0-38.3-20-38.3-41.3s15.9-41.3,38.3-41.3S804.8,134.4,804.9,155.7L804.9,155.7z M797.8,152.6c-1.4-16.4-14-31.4-31.4-31.4
				s-29.7,15-31.4,31.4H797.8z"/>
			<path class="st0" d="M912.1,120.1v72.6c-0.1,1.8-1.5,3.2-3.3,3.3s-3.2-1.3-3.3-3.1c0-0.1,0-0.1,0-0.2v-13.8
				c-5.5,10.9-15.2,18.8-27.6,18.8c-19.7,0-30.6-17.1-30.6-35.2V120c0-1.8,1.5-3.3,3.3-3.3c1.8,0.1,3.2,1.5,3.3,3.3v42.5
				c0,14.3,8.1,28.5,24,28.5c22.3,0,27.6-20.9,27.6-44v-27.1c0-1.8,1.5-3.3,3.4-3.3c0.4,0,0.8,0.1,1.1,0.2
				C911.3,117.4,912.1,118.7,912.1,120.1z"/>
			<path class="st0" d="M1080,149.7v42.5c-0.1,1.8-1.5,3.2-3.3,3.3s-3.2-1.3-3.3-3.1c0-0.1,0-0.1,0-0.2v-42.5
				c0-14.3-8.1-28.3-24-28.3c-20,0-27.6,21.4-27.6,38v32.8c-0.1,1.8-1.5,3.2-3.3,3.3s-3.2-1.3-3.3-3.1c0-0.1,0-0.1,0-0.2v-42.5
				c0-14.3-8.1-28.3-24-28.3c-20.2,0-28.5,15.9-27.8,37.1c0,0.5,0.2,1.4,0,1.7v31.9c0,1.7-1.3,3.2-3,3.5c-1.8,0.2-3.4-1-3.7-2.8
				c0-0.2,0-0.3,0-0.5v-72.5c0-1.7,1.3-3.2,3-3.5c1.8-0.2,3.4,1,3.7,2.8c0,0.2,0,0.3,0,0.5v12.1c5.7-10.2,15.9-16.9,27.8-16.9
				c13.5,0,24,8.6,28.3,21.1c5.5-12.4,16.2-21.1,29.9-21.1C1068.9,114.8,1080,131.7,1080,149.7L1080,149.7z"/>
		</g>
	</g>
	<g>
		<path class="st1" d="M83,100.1L0,137.8l83,49.1l83.1-49.1L83,100.1z"/>
		<path class="st2" d="M0,137.8l83,49.1V0L0,137.8z"/>
		<path class="st3" d="M83,0v186.9l83.1-49.1L83,0z"/>
		<path class="st2" d="M0,153.6l83,117v-68L0,153.6z"/>
		<path class="st3" d="M83,202.6v68l83.1-117L83,202.6z"/>
	</g>
</g>
</svg>
