<?xml version="1.0" encoding="utf-8"?>
<!-- Generator: Adobe Illustrator 25.2.1, SVG Export Plug-In . SVG Version: 6.00 Build 0)  -->
<svg version="1.1" id="Layer_1" xmlns="http://www.w3.org/2000/svg" xmlns:xlink="http://www.w3.org/1999/xlink" x="0px" y="0px"
	 viewBox="0 0 500 500" style="enable-background:new 0 0 500 500;" xml:space="preserve">
<style type="text/css">
	.st0{fill-rule:evenodd;clip-rule:evenodd;fill:#FFFFFF;}
	.st1{fill:#FFFFFF;}
</style>
<g>
	<path class="st0" d="M250,33.1c-122.8,0-222.4,99.6-222.4,222.4c0,98.3,63.7,181.7,152.1,211.1c11.1,2.1,15.2-4.8,15.2-10.7
		c0-5.3-0.2-22.8-0.3-41.4c-61.9,13.5-74.9-26.2-74.9-26.2c-10.1-25.7-24.7-32.5-24.7-32.5c-20.2-13.8,1.5-13.5,1.5-13.5
		c22.3,1.6,34.1,22.9,34.1,22.9c19.8,34,52,24.2,64.7,18.5c2-14.4,7.8-24.2,14.1-29.7c-49.4-5.6-101.3-24.7-101.3-109.9
		c0-24.3,8.7-44.1,22.9-59.7c-2.3-5.6-9.9-28.2,2.2-58.9c0,0,18.7-6,61.2,22.8c17.7-4.9,36.8-7.4,55.7-7.5
		c18.9,0.1,37.9,2.6,55.7,7.5c42.5-28.8,61.1-22.8,61.1-22.8c12.1,30.6,4.5,53.3,2.2,58.9c14.3,15.6,22.9,35.4,22.9,59.7
		c0,85.4-52,104.2-101.6,109.8c8,6.9,15.1,20.4,15.1,41.2c0,29.8-0.3,53.7-0.3,61c0,5.9,4,12.9,15.3,10.7
		c88.3-29.4,152-112.8,152-211C472.4,132.6,372.8,33.1,250,33.1z"/>
	<path class="st1" d="M111.8,352.4c-0.5,1.1-2.2,1.4-3.8,0.7c-1.6-0.7-2.5-2.2-2-3.3c0.5-1.1,2.2-1.5,3.8-0.7
		C111.4,349.8,112.4,351.3,111.8,352.4L111.8,352.4z M109.1,350.4"/>
	<path class="st1" d="M120.8,362.5c-1.1,1-3.1,0.5-4.5-1c-1.5-1.6-1.7-3.6-0.7-4.6c1.1-1,3.1-0.5,4.6,1
		C121.6,359.4,121.9,361.5,120.8,362.5L120.8,362.5z M118.7,360.2"/>
	<path class="st1" d="M129.6,375.3c-1.4,0.9-3.6,0.1-5-1.9c-1.4-2-1.4-4.4,0-5.3c1.4-0.9,3.6-0.1,5,1.9
		C131,371.9,131,374.3,129.6,375.3L129.6,375.3z M129.6,375.3"/>
	<path class="st1" d="M141.6,387.7c-1.2,1.3-3.8,1-5.7-0.9c-1.9-1.8-2.5-4.3-1.3-5.7c1.2-1.3,3.8-1,5.8,0.9
		C142.3,383.8,142.9,386.3,141.6,387.7L141.6,387.7z M141.6,387.7"/>
	<path class="st1" d="M158.2,394.9c-0.5,1.7-3,2.5-5.6,1.8c-2.5-0.8-4.2-2.8-3.7-4.6c0.5-1.8,3-2.6,5.6-1.8
		C157.1,391.1,158.7,393.1,158.2,394.9L158.2,394.9z M158.2,394.9"/>
	<path class="st1" d="M176.4,396.2c0.1,1.8-2.1,3.4-4.7,3.4c-2.7,0.1-4.8-1.4-4.8-3.2c0-1.9,2.1-3.4,4.7-3.4
		C174.2,392.9,176.4,394.4,176.4,396.2L176.4,396.2z M176.4,396.2"/>
	<path class="st1" d="M193.3,393.3c0.3,1.8-1.5,3.6-4.1,4.1c-2.6,0.5-5-0.6-5.3-2.4c-0.3-1.8,1.6-3.7,4.1-4.1
		C190.6,390.4,193,391.5,193.3,393.3L193.3,393.3z M193.3,393.3"/>
</g>
</svg>
