<?xml version="1.0" encoding="utf-8"?>
<!-- Generator: Adobe Illustrator 25.2.1, SVG Export Plug-In . SVG Version: 6.00 Build 0)  -->
<svg version="1.1" id="Layer_1" xmlns="http://www.w3.org/2000/svg" xmlns:xlink="http://www.w3.org/1999/xlink" x="0px" y="0px"
	 viewBox="0 0 500 500" style="enable-background:new 0 0 500 500;" xml:space="preserve">
<style type="text/css">
	.st0{fill:#FFFFFF;}
</style>
<g>
	<path class="st0" d="M358.5,472.1c-72.3,0-144.5,0-216.8,0c-1.4-0.3-2.8-0.6-4.2-0.8c-12.1-1.3-24-4-35-9.2
		C54.8,439.6,29.1,401.8,28.3,349c-0.9-65.9-0.3-131.8-0.2-197.8c0-21.4,4.7-41.7,15.6-60.1c24.5-41.5,61.1-62.7,109.3-63
		c64.8-0.3,129.5-0.2,194.3,0c8.3,0,16.9,0.5,25,2.3c50.3,11.1,82.4,41.7,96.2,91.3c1.8,6.5,2.5,13.3,3.6,20c0,72.3,0,144.6,0,216.9
		c-0.7,4.5-1.2,9.1-2.2,13.6c-11.3,50.3-41.8,82.6-91.5,96.4C372,470.3,365.2,470.9,358.5,472.1z M250.5,67.4c-32.2,0-64.5,0-96.7,0
		c-10.2,0-20.2,1.1-29.8,4.5c-35.1,12.6-56.4,42.8-56.4,81c-0.1,64.8-0.2,129.5,0.2,194.3c0.1,9.7,1.4,19.8,4.5,28.9
		c11.9,35.3,42.6,56.6,80.7,56.6c64.7,0.1,129.5,0.2,194.2-0.2c9.7-0.1,19.8-1.4,28.9-4.5c35.2-11.9,56.6-42.3,56.7-80.2
		c0.2-65.2,0.2-130.4,0-195.6c-0.1-29.1-11.8-52.6-35.5-69.7c-15-10.9-32.1-15.3-50.5-15.2C314.6,67.4,282.5,67.4,250.5,67.4z"/>
	<path class="st0" d="M364.6,250.1C364.5,313,312.7,364.7,250,364.5c-63-0.2-114.6-52-114.3-114.7c0.3-62.9,51.6-114.1,114.4-114.2
		C312.9,135.5,364.6,187.3,364.6,250.1z M249.9,175.1c-41.5,0.3-75,34-74.7,75.2c0.3,41.5,34,75,75.2,74.8c41.5-0.3,75-34,74.8-75.2
		C324.8,208.3,291.1,174.8,249.9,175.1z"/>
	<path class="st0" d="M369.6,159.9c-15.9,0.1-29.1-13-29.1-28.8c0-15.7,12.9-28.6,28.7-28.8c15.9-0.2,29.1,12.9,29.1,28.8
		C398.2,146.8,385.3,159.8,369.6,159.9z"/>
</g>
</svg>
