<?xml version="1.0" encoding="utf-8"?>
<!-- Generator: Adobe Illustrator 25.2.1, SVG Export Plug-In . SVG Version: 6.00 Build 0)  -->
<svg version="1.1" id="Layer_1" xmlns="http://www.w3.org/2000/svg" xmlns:xlink="http://www.w3.org/1999/xlink" x="0px" y="0px"
	 viewBox="0 0 500 500" style="enable-background:new 0 0 500 500;" xml:space="preserve">
<style type="text/css">
	.st0{fill:#FFFFFF;}
</style>
<g>
	<path class="st0" d="M82.7,27.2c5.1,1.1,10.3,1.8,15.2,3.4c25.3,8.6,39.7,33.5,35.4,60.2c-4.1,24.7-26.4,43.6-52.2,43.9
		c-26,0.4-48.5-18.3-53.3-44.2c-0.2-0.8-0.6-1.6-0.8-2.4c0-4.6,0-9.3,0-13.9c0.3-0.8,0.7-1.6,0.8-2.4c3.7-18.3,13.9-31.8,31-39.4
		c6.1-2.7,13-3.5,19.5-5.2C79.8,27.2,81.2,27.2,82.7,27.2z"/>
	<path class="st0" d="M277.1,472.8c-30.9,0-61.4,0-92.1,0c0-99,0-197.8,0-297c29.2,0,58.5,0,88.3,0c0,13.2,0,26.6,0,41.2
		c1.4-1.6,2-2.1,2.4-2.8c15.7-26,39.4-40.3,68.8-44.7c24-3.6,47.9-1.6,70.6,7.8c26.3,10.8,41.3,31.4,49.3,57.9
		c6,19.8,8.3,40.1,8.4,60.6c0.4,58.2,0.2,116.5,0.2,174.7c0,0.6-0.1,1.1-0.2,2.1c-30.6,0-61.1,0-92.2,0c0-1.7,0-3.3,0-5
		c0-50.1,0-100.2-0.1-150.3c0-12.9-1-25.8-5.1-38.3c-6.1-18.5-18.9-28.5-38.3-29.4c-6.2-0.3-12.6,0-18.6,1.2
		c-21.7,4.2-34.7,18.4-38.7,43c-1.8,11-2.6,22.2-2.7,33.3c-0.3,46.6-0.1,93.2-0.1,139.8C277.1,468.8,277.1,470.5,277.1,472.8z"/>
	<path class="st0" d="M34.6,175.6c30.8,0,61.1,0,91.8,0c0,99,0,198,0,297.2c-30.6,0-61,0-91.8,0C34.6,373.8,34.6,274.9,34.6,175.6z"
		/>
</g>
</svg>
