<?xml version="1.0" encoding="utf-8"?>
<!-- Generator: Adobe Illustrator 25.2.1, SVG Export Plug-In . SVG Version: 6.00 Build 0)  -->
<svg version="1.1" id="Layer_1" xmlns="http://www.w3.org/2000/svg" xmlns:xlink="http://www.w3.org/1999/xlink" x="0px" y="0px"
	 viewBox="0 0 500 500" style="enable-background:new 0 0 500 500;" xml:space="preserve">
<style type="text/css">
	.st0{fill:#FFFFFF;}
</style>
<g>
	<path class="st0" d="M153,123.7c69.3,0,125.5,56.6,125.5,126.3S222.3,376.3,153,376.3S27.6,319.8,27.6,250S83.7,123.7,153,123.7z
		 M353.4,131.1c34.6,0,62.7,53.2,62.7,118.9l0,0c0,65.7-28.1,118.9-62.7,118.9s-62.7-53.3-62.7-118.9S318.8,131.1,353.4,131.1z
		 M450.4,143.5c12.2,0,22.1,47.7,22.1,106.5s-9.9,106.5-22.1,106.5s-22.1-47.7-22.1-106.5S438.2,143.5,450.4,143.5z"/>
</g>
</svg>
