<?xml version="1.0" encoding="utf-8"?>
<!-- Generator: Adobe Illustrator 25.2.1, SVG Export Plug-In . SVG Version: 6.00 Build 0)  -->
<svg version="1.1" id="Layer_1" xmlns="http://www.w3.org/2000/svg" xmlns:xlink="http://www.w3.org/1999/xlink" x="0px" y="0px"
	 viewBox="0 0 500 500" style="enable-background:new 0 0 500 500;" xml:space="preserve">
<style type="text/css">
	.st0{fill:#FFFFFF;}
</style>
<g>
	<g>
		<path class="st0" d="M372.9,280.8c0,9.6,0,18.5,0,27.4c0,16,0,32,0,48c0,10.5-6.2,16.7-16.7,16.8c-23.2,0-46.4,0-69.7,0
			c-1.7,0-3.5,0-5.8,0c0,2,0,3.7,0,5.4c0,23.1,0,46.1,0,69.2c0,11.8-5.9,17.7-17.8,17.7c-70.1,0-140.3,0-210.4,0
			c-11.8,0-17.8-5.9-17.8-17.6c0-70.3,0-140.6,0-210.9c0-11.5,6-17.5,17.4-17.5c23.1,0,46.1,0,69.2,0c1.7,0,3.4,0,5.6,0
			c0-2.2,0-3.9,0-5.6c0-23.1,0-46.1,0-69.2c0-11.5,6-17.5,17.5-17.5c23.1,0,46.1,0,69.2,0c1.7,0,3.4,0,5.6,0c0-2.2,0-3.9,0-5.6
			c0-23.1,0-46.1,0-69.2c0-11.5,6-17.5,17.5-17.5c70.3,0,140.6,0,210.9,0c11.7,0,17.6,6,17.6,17.8c0,70.1,0,140.3,0,210.4
			c0,11.8-5.9,17.8-17.7,17.8c-22.9,0-45.8,0-68.7,0C377,280.8,375.3,280.8,372.9,280.8z M434.1,249.8c0-61.6,0-122.8,0-184
			c-61.5,0-122.7,0-183.9,0c0,51.2,0,102.1,0,153.4c5,0,9.7-0.1,14.5,0c9.5,0.1,15.9,6.5,16,16.1c0.1,4.8,0,9.5,0,14.5
			C332,249.8,382.9,249.8,434.1,249.8z M249.6,434.3c0-51.4,0-102.3,0-153.6c-4.8,0-9.3,0-13.7,0c-10.4-0.1-16.6-6.4-16.7-16.8
			c0-4.6,0-9.1,0-13.7c-51.6,0-102.4,0-153.5,0c0,61.5,0,122.7,0,184.1C127,434.3,188.1,434.3,249.6,434.3z M157.9,218.9
			c20.6,0,40.8,0,60.9,0c0-20.6,0-40.8,0-60.9c-20.5,0-40.6,0-60.9,0C157.9,178.3,157.9,198.4,157.9,218.9z M281,281
			c0,20.6,0,40.8,0,60.9c20.6,0,40.8,0,60.9,0c0-20.5,0-40.6,0-60.9C321.5,281,301.4,281,281,281z"/>
		<path class="st0" d="M302.6,158.2c6.2,6.1,12.4,12.2,18.5,18.3c7.2,7.2,7.6,16.6,1.1,23c-6.4,6.3-15.6,5.9-22.6-1.1
			c-9.7-9.6-19.3-19.2-28.9-28.9c-7.2-7.3-7.3-16-0.1-23.3c9.7-9.8,19.4-19.5,29.2-29.2c6.8-6.7,16-7,22.3-0.9
			c6.4,6.2,6.2,15.7-0.6,22.6c-6,6.2-12.2,12.3-18.3,18.4C303.1,157.1,303.1,157.3,302.6,158.2z"/>
		<path class="st0" d="M382.2,157.8c-6.6-6.5-12.6-12.4-18.6-18.4c-7.5-7.5-8.1-16.8-1.5-23.3c6.5-6.4,15.7-5.9,23,1.4
			c9.4,9.4,18.8,18.8,28.2,28.2c7.7,7.7,7.7,16.3,0.1,24c-9.6,9.7-19.2,19.3-28.9,28.9c-6.9,6.9-16.4,7-22.6,0.6
			c-6.1-6.3-5.8-15.5,1-22.3C369,170.6,375.4,164.5,382.2,157.8z"/>
		<path class="st0" d="M117.7,342.3c6.5,6.4,12.6,12.5,18.7,18.6c7.3,7.3,7.8,16.5,1.4,23c-6.4,6.5-15.7,6-23-1.2
			c-9.5-9.5-19.1-19-28.5-28.5c-7.4-7.5-7.4-16.2,0-23.7c9.6-9.7,19.2-19.3,28.9-28.9c7-6.9,16.3-7.2,22.6-0.9
			c6.3,6.3,5.9,15.6-1,22.6C130.6,329.6,124.3,335.7,117.7,342.3z"/>
		<path class="st0" d="M197.6,342.3c-6.6-6.5-12.7-12.6-18.8-18.7c-7.2-7.3-7.7-16.5-1.3-23c6.4-6.4,15.7-5.9,23,1.3
			c9.4,9.4,18.8,18.8,28.2,28.2c7.8,7.9,7.8,16.4-0.1,24.4c-9.4,9.4-18.8,18.8-28.2,28.2c-7.2,7.2-16.6,7.6-23,1.1
			c-6.3-6.4-5.8-15.6,1.2-22.6C184.7,355,190.9,349,197.6,342.3z"/>
	</g>
</g>
</svg>
