<?xml version="1.0" ?><svg fill="white" width="200px" height="200px" viewBox="0 0 200 200" data-name="Layer 1" id="Layer_1" xmlns="http://www.w3.org/2000/svg"><title/><path d="M176.6,125a9.9,9.9,0,0,0-9-2c-7-22.5-10-39.5-11.5-58-3-29-26-52.5-55.5-52.5-30.5,0-53.5,24-56,53-1.5,18.5-5,35.5-12,57.5a9.9,9.9,0,0,0-9,2,10.68,10.68,0,0,0-1.5,14c3,3.5,10.5,8.5,18,10.5l20,5a34.72,34.72,0,0,0,35,33h10a35.06,35.06,0,0,0,35-33c8.5-1.5,15-3,20-5a51.74,51.74,0,0,0,13-6.5c1.5-1,3.5-2,5-4,2.5-4.5,2.5-10.5-1.5-14ZM64.6,67c2-19.5,17-34.5,36-34.5,18.5,0,34,14.5,35.5,34,2,21,5.5,40,13.5,65.5-9.5,2.5-25,5.5-49.5,5.5s-40-3-49.5-5.5C59.1,107,63.1,87.5,64.6,67Zm40.5,100.5h-10c-6.5,0-12.5-4.5-14-10.5,5,.5,11.5.5,19,.5,7,0,13.5,0,19.5-.5A15.17,15.17,0,0,1,105.1,167.5Z"/></svg>