<?xml version="1.0" encoding="utf-8"?>
<!-- Generator: Adobe Illustrator 25.2.1, SVG Export Plug-In . SVG Version: 6.00 Build 0)  -->
<svg version="1.1" id="Layer_1" xmlns="http://www.w3.org/2000/svg" xmlns:xlink="http://www.w3.org/1999/xlink" x="0px" y="0px"
	 viewBox="0 0 500 500" style="enable-background:new 0 0 500 500;" xml:space="preserve">
<style type="text/css">
	.st0{fill:#FFFFFF;}
</style>
<path class="st0" d="M363,175c-8.1-4.9-18.8-4.9-27.8,0l-63.8,37.7l-43.3,24.5l-63.8,37.7c-8.1,4.9-18.8,4.9-27.8,0l-50.6-29.4
	c-8.1-4.9-14-14-14-23.7v-58.3c0-9.7,4.9-18.8,14-23.7l49.8-28.6c8.1-4.9,18.8-4.9,27.8,0l49.8,28.6c8.1,4.9,14,14,14,23.7v37.7
	l43.3-25.3v-37.7c0-9.7-4.9-18.8-14-23.7l-92.4-54.1c-8.1-4.9-18.8-4.9-27.8,0l-94.1,54.1c-8.9,4.9-14,14-14,23.7v108.8
	c0,9.7,4.9,18.8,14,23.7l94,53.9c8.1,4.9,18.8,4.9,27.8,0l63.8-36.8l43.3-25.3l63.8-36.8c8.1-4.9,18.8-4.9,27.8,0l49.8,28.6
	c8.1,4.9,14,14,14,23.7v58.1c0,9.7-4.9,18.8-14,23.7L362.8,389c-8.1,4.9-18.8,4.9-27.8,0l-49.8-28.6c-8.1-4.9-14-14-14-23.7V299
	l-43.3,25.3V362c0,9.7,4.9,18.8,14,23.7l94,53.9c8.1,4.9,18.8,4.9,27.8,0l94-53.9c8.1-4.9,14-14,14-23.7V253.2
	c0-9.7-4.9-18.8-14-23.7L363,175z"/>
</svg>
