<?xml version="1.0" encoding="utf-8"?>
<!-- Generator: Adobe Illustrator 25.2.1, SVG Export Plug-In . SVG Version: 6.00 Build 0)  -->
<svg version="1.1" id="Layer_1" xmlns="http://www.w3.org/2000/svg" xmlns:xlink="http://www.w3.org/1999/xlink" x="0px" y="0px"
	 viewBox="0 0 1080 270.6" style="enable-background:new 0 0 1080 270.6;" xml:space="preserve">
<style type="text/css">
	.st0{fill:#FFFFFF;}
</style>
<desc>Created with Sketch.</desc>
<g>
	<g>
		<path class="st0" d="M423.9,92c6.5,4,12.1,9.6,15.6,17.1c4,7.6,6,16.6,6,26.7s-2,18.6-6.5,26.2c-4,7.6-10.1,13.1-17.6,16.6
			c-7.6,4-16.6,6-26.2,6c-5.5,0-10.6-1-15.6-3c-5-1.5-9.6-4.5-13.1-8.1V226h-29.2V88h25.2l2.5,11.1c11.1-9.1,23.2-13.6,35.8-13.6
			C409.3,85.4,417.3,87.4,423.9,92z M407.8,154.4c5-4.5,7.6-10.6,7.6-18.1c0-7.6-2.5-13.6-7.1-18.6c-4.5-5-10.6-7.1-17.1-7.1
			c-5.5,0-10.6,1-14.6,3.5c-4,2-7.1,5.5-9.6,10.1v22.7c1.5,4.5,4.5,8.1,8.1,10.6c4,2.5,8.6,4,14.1,4
			C396.7,161.5,402.7,159,407.8,154.4z"/>
		<path class="st0" d="M462.7,109.6c4.5-7.1,10.6-13.1,18.6-17.1c8.1-4,17.1-6.5,27.2-6.5s19.1,2,27.2,6.5
			c7.6,4,13.6,10.1,18.1,17.6c4.5,7.6,6.5,15.6,6.5,25.2s-2,17.6-6.5,25.2c-4.5,7.6-10.1,13.6-18.1,17.6c-7.6,4-17.1,6.5-27.2,6.5
			c-10.1,0-19.1-2-27.2-6s-14.1-9.6-18.6-17.1c-4-7.6-6.5-16.1-6.5-26.2C456.1,125.7,458.6,117.2,462.7,109.6z M492.4,153.4
			c4,5,9.6,7.1,16.1,7.1s12.1-2.5,16.1-7.1s6-11.1,6-18.1c0-7.6-2-13.6-6-18.1c-4.5-5-9.6-7.6-16.6-7.6c-6.5,0-11.6,2.5-16.1,7.1
			c-4,5-6,11.1-6,18.6C485.8,142.4,487.9,148.4,492.4,153.4z"/>
		<path class="st0" d="M607.8,16.4v165.7h-29.2V16.4H607.8z"/>
		<path class="st0" d="M727.7,90.5l-59.4,136H640l22.2-48.9l-42.3-87.2h33.2l24.2,54.4l24.2-54.4L727.7,90.5z"/>
		<path class="st0" d="M839.5,90.5v91.7c0,8.6-2.5,16.6-7.6,23.7c-5,7.1-11.6,12.6-20.2,16.6c-8.6,4-17.6,6-27.7,6
			c-7.6,0-14.1-1-19.6-2.5c-5.5-2-10.1-4-13.6-6c-4-2.5-8.1-5.5-12.6-9.6l17.1-20.2c4,4,8.6,7.1,12.6,9.1s9.6,3.5,15.6,3.5
			c7.6,0,13.6-2,18.6-5.5s7.6-9.1,7.6-15.6v-13.1c-3,4.5-7.1,8.6-13.1,11.6s-13.1,4.5-21.2,4.5s-16.1-2-23.2-6.5
			c-7.1-4-12.6-10.1-17.1-17.6c-4-7.6-6.5-15.6-6.5-24.7s2-17.6,6.5-25.2s10.1-13.6,17.6-18.1c7.1-4.5,14.6-6.5,22.7-6.5
			c7.6,0,14.1,1,20.2,3c6,2,10.6,5,13.6,8.6l3-7.1L839.5,90.5L839.5,90.5z M809.8,146.9v-22.7c-2-4.5-5-8.1-9.6-10.6
			c-4.5-2.5-9.6-4-15.6-4c-7.1,0-13.1,2.5-18.1,7.1c-5,4.5-7.6,10.6-7.6,18.1c0,7.1,2.5,13.6,7.6,18.6c5,5,11.1,7.6,18.1,7.6
			C796.2,160.5,804.7,156,809.8,146.9z"/>
		<path class="st0" d="M863.7,109.6c4.5-7.6,10.6-13.1,18.6-17.6c8.1-4,17.1-6.5,27.2-6.5s19.1,2,27.2,6.5
			c7.6,4,13.6,10.1,18.1,17.6c4,7.6,6.5,15.6,6.5,25.2s-2,17.6-6.5,25.2c-4,7.6-10.1,13.6-18.1,17.6c-7.6,4-17.1,6.5-27.2,6.5
			s-19.1-2-27.2-6c-8.1-4-14.1-9.6-18.6-17.1c-4.5-7.6-6.5-16.1-6.5-26.7C857.1,125.7,859.1,117.2,863.7,109.6z M892.9,153.4
			c4,5,9.6,7.1,16.1,7.1s12.1-2.5,16.1-7.1s6-11.1,6-18.1c0-7.6-2-13.6-6-18.1s-9.6-7.1-16.1-7.1s-11.6,2.5-16.1,7.1
			c-4.5,4.5-6.5,11.1-6.5,18.1C886.9,142.4,888.9,148.4,892.9,153.4z"/>
		<path class="st0" d="M1064.7,93.5c6,5,8.6,11.6,9.1,19.6v69H1044v-57.9c-0.5-9.1-5-13.6-13.6-13.6c-6.5,0-12.1,3-16.1,9.6
			c-4,6.5-6,14.6-6,24.2v37.8H979V90.5h26.7l2,14.6c3.5-6,8.1-10.6,14.1-14.1c6-3.5,13.1-5,21.2-5
			C1051.6,85.9,1059.2,88.4,1064.7,93.5z"/>
	</g>
	<path class="st0" d="M212.3,89c-5-3-11.6-3-17.1,0l-39.3,23.2l-26.7,15.1l-39.3,23.2c-5,3-11.6,3-17.1,0l-31.2-18.1
		c-5-3-8.6-8.6-8.6-14.6V81.9c0-6,3-11.6,8.6-14.6l30.7-17.6c5-3,11.6-3,17.1,0l30.7,17.6c5,3,8.6,8.6,8.6,14.6v23.2l26.7-15.6V66.3
		c0-6-3-11.6-8.6-14.6L89.9,18.4c-5-3-11.6-3-17.1,0l-58,33.3c-5.5,3-8.6,8.6-8.6,14.6v67c0,6,3,11.6,8.6,14.6l57.9,33.2
		c5,3,11.6,3,17.1,0l39.3-22.7l26.7-15.6l39.3-22.7c5-3,11.6-3,17.1,0l30.7,17.6c5,3,8.6,8.6,8.6,14.6v35.8c0,6-3,11.6-8.6,14.6
		l-30.7,18.1c-5,3-11.6,3-17.1,0l-30.7-17.6c-5-3-8.6-8.6-8.6-14.6v-23.2L129.1,181v23.2c0,6,3,11.6,8.6,14.6l57.9,33.2
		c5,3,11.6,3,17.1,0l57.9-33.2c5-3,8.6-8.6,8.6-14.6v-67c0-6-3-11.6-8.6-14.6L212.3,89z"/>
</g>
</svg>
