<?xml version="1.0" encoding="utf-8"?>
<!-- Generator: Adobe Illustrator 25.2.1, SVG Export Plug-In . SVG Version: 6.00 Build 0)  -->
<svg version="1.1" id="Layer_1" xmlns="http://www.w3.org/2000/svg" xmlns:xlink="http://www.w3.org/1999/xlink" x="0px" y="0px"
	 viewBox="0 0 748.83 174" style="enable-background:new 0 0 748.83 174;" xml:space="preserve">
<style type="text/css">
	.st0{fill:#0E5DE9;}
</style>
<g>
	<path class="st0" d="M278.71,72.15c0,17.33-13.32,27-33.36,27h-41.62v28.53h-14.15V45.15h55.76
		C265.38,45.15,278.71,54.93,278.71,72.15z M264.2,72.26c0-10.61-7.9-14.74-20.04-14.74h-40.44V87h40.44
		C256.31,87,264.2,82.76,264.2,72.26z"/>
	<path class="st0" d="M374.45,127.67l-25.58-29.94h-34.78v29.94h-14.15V45.15h56.12c19.22,0,33.36,9.2,33.36,26.29
		c0,14.26-9.9,22.99-24.29,25.58l26.76,30.65H374.45z M355.12,85.59c11.79,0,19.81-3.77,19.81-14.03c0-10.26-8.02-14.03-19.81-14.03
		h-41.14v28.06H355.12z"/>
	<path class="st0" d="M409.05,86.41c0-27.23,19.57-43.74,51.28-43.74c31.71,0,51.28,16.5,51.28,43.74
		c0,27.23-19.57,43.74-51.28,43.74C428.62,130.15,409.05,113.64,409.05,86.41z M497.12,86.41c0-20.04-14.38-31.24-36.78-31.24
		c-22.4,0-36.9,11.2-36.9,31.24s14.38,31.24,36.9,31.24C482.73,117.65,497.12,106.45,497.12,86.41z"/>
	<path class="st0" d="M530.54,86.41c0-27.23,19.57-43.74,51.28-43.74c31.71,0,51.28,16.5,51.28,43.74
		c0,27.23-19.57,43.74-51.28,43.74C550.11,130.15,530.54,113.64,530.54,86.41z M618.6,86.41c0-20.04-14.38-31.24-36.78-31.24
		s-36.9,11.2-36.9,31.24s14.38,31.24,36.9,31.24C604.22,117.65,618.6,106.45,618.6,86.41z"/>
	<path class="st0" d="M671.94,57.65v24.29h56.35v12.61h-56.35v33.13H657.8V45.15h80.75v12.5H671.94z"/>
	<path class="st0" d="M82,4.19L10.28,45.57v82.82l17.42,10.07V55.64L82,24.3l54.3,31.34v62.71L82,149.7l-19.43-11.23V75.76
		l0.24-0.12L82,64.53l19.46,11.23v22.45L82,109.47v20.11l36.88-21.3V65.72L82,44.42l-36.88,21.3v82.82l17.45,10.04L82,169.81
		l71.75-41.41V45.57L82,4.19z"/>
</g>
</svg>
