<?xml version="1.0" encoding="utf-8"?>
<!-- Generator: Adobe Illustrator 25.2.1, SVG Export Plug-In . SVG Version: 6.00 Build 0)  -->
<svg version="1.1" id="Layer_1" xmlns="http://www.w3.org/2000/svg" xmlns:xlink="http://www.w3.org/1999/xlink" x="0px" y="0px"
	 viewBox="0 0 500 500" style="enable-background:new 0 0 500 500;" xml:space="preserve">
<style type="text/css">
	.st0{fill:#FFFFFF;}
</style>
<g>
	<path class="st0" d="M203.4,374c0-10.6,0-20.5,0-30.6c-30.8,0-61.6,0-92.5,0c0,30.7,0,61.4,0,92.4c30.7,0,61.4,0,92.2,0
		c0.4-1.4,0.7-2.9,1.2-4.4c2.3-7.2,9.1-11.6,16.4-10.8c7.4,0.8,13.4,7,13.8,14.6c0.2,5.2,0.1,10.3,0.1,15.5
		c-0.1,9.9-6.5,16.3-16.5,16.3c-33.9,0.1-67.8,0-101.7,0c-6.8,0-13.7,0.6-20.3-0.2c-4.2-0.5-9.1-2-12.1-4.8
		c-15.7-15-30.9-30.2-45.9-45.9c-2.8-2.9-4.8-8-4.8-12.1c-0.3-40.7-0.2-81.3-0.2-122c0-10,6.4-16.5,16.4-16.5
		c40.6-0.1,81.3,0,121.9,0c5,0,9.1,1.6,12.6,5.1c15.1,15.1,30.1,30.1,45.2,45.2c3.6,3.6,5.3,7.9,5.3,13c-0.1,14.9,0,29.6,0,44.8
		c30.9,0,61.7,0,92.7,0c0-15.2,0-30.2,0-46.1c-1.6,0-3.2,0-4.9,0c-23.3,0-46.8,0-70.1,0c-11.5,0-17.6-6.2-17.6-17.7
		c0-86.3,0-172.6,0-259c0-11.6,6-17.7,17.6-17.7c45.2,0,90.3,0,135.5-0.1c5.7,0,10.2,1.9,14.2,6c19.7,19.8,39.4,39.5,59.2,59.2
		c4,4,5.9,8.5,5.9,14.3c-0.1,65.9,0,131.7-0.1,197.5c0,11.5-6.1,17.5-17.8,17.5c-28.2,0-56.5,0-84.7,0c-1.8,0-3.5,0-6,0
		c0,1.9,0,3.6,0,5.3c0,18.1,0,36.1,0,54.2c0,11.9-6,17.9-17.8,18c-50.7,0-101.3,0-152-0.1c-3.4,0-5.5,1-7.6,3.7
		c-11.4,14.5-32,16-45.3,3.4c-13.1-12.3-12.9-33.1,0.4-45.3c13.4-12.2,33.7-10.7,44.9,3.7c2.1,2.7,4.2,3.9,7.6,3.7
		C193.4,373.8,198.2,374,203.4,374z M435.4,296.3c0-51.7,0-103.1,0-154.4c-0.6-0.2-0.9-0.3-1.2-0.3c-19.6,0-39,0-58.6-0.1
		c-11.1,0-17.3-6.3-17.4-17.5c0-18.3,0-36.4,0-54.7c0-1.7,0-3.4,0-5c-31.4,0-62.1,0-92.7,0c0,77.4,0,154.5,0,231.8
		C322.3,296.3,378.8,296.3,435.4,296.3z M180.2,312c0.2-0.4,0.4-0.8,0.6-1.2c-3.9-3.8-7.7-7.8-11.9-11.3c-1.9-1.6-4.7-2.9-7-2.9
		c-23.5-0.2-47.1-0.1-70.6-0.1c-1.4,0-2.8,0-4.1,0c-0.2,0.4-0.4,0.7-0.6,1.1c4.1,4,8.1,8.1,12.5,11.9c1.5,1.3,3.8,2.4,5.8,2.4
		c12,0.2,23.8,0.1,35.8,0.1C153.9,312,167,312,180.2,312z M64.9,318.8c-0.5,1.3-0.8,1.5-0.8,1.8c0,25.1,0,50.3,0,75.4
		c0,0.9-0.1,2.2,0.4,2.8c4.7,4.9,9.5,9.7,15.1,15.3c0-26.9,0-52.4-0.1-77.9c0-1.3-0.6-2.8-1.5-3.8C73.8,328,69.6,323.6,64.9,318.8z
		 M427.4,110.4c-12.6-12.6-25.3-25.3-37.7-37.8c0,12.1,0,24.8,0,37.8C402.6,110.4,415.3,110.4,427.4,110.4z"/>
	<path class="st0" d="M318.5,204c6.3,6.2,12.5,12.3,18.7,18.5c7.2,7.3,7.6,16.8,1.1,23.1c-6.5,6.3-15.8,5.9-22.8-1.2
		c-9.8-9.7-19.5-19.4-29-29.1c-7.3-7.4-7.3-16.2,0-23.4c9.8-9.9,19.6-19.7,29.4-29.4c6.8-6.8,16.2-7.1,22.5-0.9
		c6.5,6.3,6.3,15.8-0.6,22.8c-6.1,6.2-12.3,12.4-18.4,18.6C319,203,319,203.1,318.5,204z"/>
	<path class="st0" d="M383.2,203.6c-6.7-6.7-12.9-12.8-19.1-19c-7.2-7.3-7.6-16.8-1-23.1c6.4-6.3,15.7-5.9,22.8,1.2
		c9.6,9.6,19.2,19.2,28.7,28.7c7.7,7.8,7.7,16.4,0,24.2c-9.6,9.6-19.2,19.2-28.7,28.7c-7.1,7.1-16.4,7.5-22.8,1.2
		c-6.6-6.5-6.2-15.9,1.1-23.1C370.3,216.3,376.5,210.2,383.2,203.6z"/>
</g>
</svg>
