<?xml version="1.0" encoding="utf-8"?>
<!-- Generator: Adobe Illustrator 25.2.1, SVG Export Plug-In . SVG Version: 6.00 Build 0)  -->
<svg version="1.1" id="Layer_1" xmlns="http://www.w3.org/2000/svg" xmlns:xlink="http://www.w3.org/1999/xlink" x="0px" y="0px"
	 viewBox="0 0 500 500" style="enable-background:new 0 0 500 500;" xml:space="preserve">
<style type="text/css">
	.st0{fill-rule:evenodd;clip-rule:evenodd;fill:#FFFFFF;}
</style>
<path class="st0" d="M26.5,250c0,123.4,100.1,223.5,223.5,223.5S473.5,373.4,473.5,250S373.4,26.5,250,26.5S26.5,126.6,26.5,250z
	 M209,352.4l3.8-57l0,0l103.6-93.5c4.5-4-1-6-7-2.3l-127.9,80.7L126.3,263c-11.9-3.7-12-11.9,2.7-17.7l215.3-83
	c9.8-4.5,19.3,2.4,15.6,17.4l-36.7,172.8c-2.6,12.3-10,15.2-20.3,9.5L247,320.8l-26.8,26.1c-0.1,0.1-0.2,0.2-0.3,0.2
	C216.9,350,214.5,352.4,209,352.4z"/>
</svg>
