<?xml version="1.0" encoding="utf-8"?>
<!-- Generator: Adobe Illustrator 25.2.1, SVG Export Plug-In . SVG Version: 6.00 Build 0)  -->
<svg version="1.1" id="Layer_1" xmlns="http://www.w3.org/2000/svg" xmlns:xlink="http://www.w3.org/1999/xlink" x="0px" y="0px"
	 viewBox="0 0 1080 270.6" style="enable-background:new 0 0 1080 270.6;" xml:space="preserve">
<style type="text/css">
	.st0{fill:#FFFFFF;}
</style>
<desc>Created with Sketch.</desc>
<g>
	<g>
		<g>
			<rect x="443.8" y="108.9" class="st0" width="14.1" height="92"/>
			<rect x="406.1" y="70" class="st0" width="114.9" height="14.1"/>
			<rect x="469.2" y="108.9" class="st0" width="14.1" height="92"/>
		</g>
		<g>
			<polygon class="st0" points="872.6,201 886.8,201 886.8,145.6 872.6,129.8 			"/>
			<polygon class="st0" points="947.5,70 947.5,172.7 846.9,60.9 846.9,201 861.1,201 861.1,98.3 961.7,210.1 961.7,70 			"/>
		</g>
		<g>
			<path class="st0" d="M754.8,69.9c-36.1,0-65.5,29.4-65.5,65.5s29.4,65.5,65.5,65.5s65.5-29.4,65.5-65.5
				C820.4,99.3,791,69.9,754.8,69.9z M754.8,186.8c-28.3,0-51.4-23-51.4-51.4s23-51.4,51.4-51.4c28.3,0,51.4,23,51.4,51.4
				C806.3,163.8,783.2,186.8,754.8,186.8z"/>
			<path class="st0" d="M754.8,126c-5.2,0-9.4,4.2-9.4,9.4s4.2,9.4,9.4,9.4s9.4-4.2,9.4-9.4S760.1,126,754.8,126z"/>
		</g>
		<path class="st0" d="M664.6,110.2c0-22.2-17.9-40.2-39.9-40.2h-75v131.1h14V84.2h61c14.1,0,25.6,11.6,25.6,26
			c0,14.3-11.3,25.8-25.3,26h-49.7v64.9h14v-50.7h32.8l26.8,50.7h16.3l-28-52.7C653.4,143,664.6,127.4,664.6,110.2z"/>
	</g>
	<path class="st0" d="M309.3,44l-191-35.1l100.5,252.9l140-170.6L309.3,44z M306.2,59.5l29.2,27.8l-79.9,14.5L306.2,59.5z
		 M238.2,98.8L153.9,29l137.6,25.3L238.2,98.8z M232.1,111.2l-13.7,113.5l-74-186.4L232.1,111.2z M244.8,117.2l88.5-16L231.8,224.8
		L244.8,117.2z"/>
</g>
</svg>
