<?xml version="1.0" encoding="utf-8"?>
<!-- Generator: Adobe Illustrator 25.2.1, SVG Export Plug-In . SVG Version: 6.00 Build 0)  -->
<svg version="1.1" id="Layer_1" xmlns="http://www.w3.org/2000/svg" xmlns:xlink="http://www.w3.org/1999/xlink" x="0px" y="0px"
	 viewBox="0 0 500 500" style="enable-background:new 0 0 500 500;" xml:space="preserve">
<style type="text/css">
	.st0{fill:#FFFFFF;}
</style>
<g>
	<path class="st0" d="M44.6,196.5c12.6,6.4,25.4,10.5,40.6,10.9c-22.9-16.7-36.1-38.1-39.5-64.9c-2.5-20,1.5-39,11.8-56.9
		c49.5,58.3,112,90.4,187.8,95.5c-0.3-9.2-1.1-17.9-0.9-26.6c1.1-37.3,29.9-73.2,66.1-82.4c33.9-8.7,63.7-0.9,89.4,23
		c1.3,1.2,3.9,1.9,5.6,1.5c17.8-3.6,34.5-9.9,50.4-18.8c1.1-0.6,2.3-1.2,4.3-2.2c-6.9,21.4-19.9,37-37.6,49.4
		c17.1-1.6,33.2-6.5,48.9-12.9c0.3,0.4,0.6,0.7,1,1.1c-7.4,8.6-14.4,17.6-22.2,25.7c-6.2,6.5-13.6,11.8-20.2,17.9
		c-1.5,1.3-2.8,3.8-2.8,5.7c-0.1,94.3-37.2,170.1-114,225.3c-32.4,23.3-69.4,35.9-108.9,41.1c-37.4,4.9-74.2,2.5-110.4-7.9
		c-22.9-6.6-44.4-16.3-64.5-28.9c-0.5-0.3-0.8-0.7-1.8-1.6c49.5,4.4,93.7-7.6,133.7-37.7c-41.8-3.8-69.6-24.8-85.2-63.9
		c14,1.7,26.9,1.9,40.5-1.7C66.3,274.7,43.3,231,44.6,196.5z"/>
</g>
</svg>
